<svg version="1.1" xmlns="http://www.w3.org/2000/svg" xmlns:xlink="http://www.w3.org/1999/xlink" width="74.40819" height="71.69159" viewBox="0,0,74.40819,71.69159"><g transform="translate(-204.66683,-152.3206)"><g data-paper-data="{&quot;isPaintingLayer&quot;:true}" fill-rule="nonzero" stroke-linejoin="miter" stroke-miterlimit="10" stroke-dasharray="" stroke-dashoffset="0" style="mix-blend-mode: normal"><g fill="#75d217" stroke="none" stroke-linecap="butt"><path d="M245.0353,171.6241l-3.9981,0.1219l-0.4512,-14.793l3.9981,-0.122z" stroke-width="1.29202"/><path d="M244.4958,152.619c1.1784,0.43 2.193,1.309 2.7634,2.5348c0.5704,1.2257 0.5895,2.568 0.1595,3.7464c-0.43,1.1784 -1.309,2.193 -2.5348,2.7634c-1.2258,0.5704 -2.568,0.5895 -3.7465,0.1595c-1.1784,-0.43 -2.1929,-1.309 -2.7633,-2.5348c-0.5704,-1.2258 -0.5895,-2.568 -0.1595,-3.7464c0.4299,-1.1785 1.309,-2.193 2.5348,-2.7634c1.2257,-0.5704 2.568,-0.5895 3.7464,-0.1595z" stroke-width="1"/></g><path d="M242.3,167.4794c5.545,0 10.57,2.252 14.209,5.891c3.639,3.639 5.891,8.664 5.891,14.209c0,5.545 -2.252,10.57 -5.891,14.209c-3.639,3.639 -8.664,5.891 -14.209,5.891c-5.545,0 -10.57,-2.252 -14.209,-5.891c-3.639,-3.639 -5.891,-8.664 -5.891,-14.209c0,-5.545 2.252,-10.57 5.891,-14.209c3.639,-3.639 8.664,-5.891 14.209,-5.891z" fill="#75d217" stroke="none" stroke-width="1" stroke-linecap="butt"/><path d="M242.2448,174.3742c3.7704,0 7.1876,1.5311 9.6613,4.0057c2.4745,2.4736 4.0056,5.8908 4.0056,9.6612c0,3.7705 -1.5311,7.1877 -4.0056,9.6613c-2.4737,2.4746 -5.8909,4.0056 -9.6613,4.0056c-3.7705,0 -7.1876,-1.531 -9.6613,-4.0056c-2.4746,-2.4736 -4.0056,-5.8908 -4.0056,-9.6613c0,-3.7704 1.531,-7.1876 4.0056,-9.6612c2.4737,-2.4746 5.8908,-4.0057 9.6613,-4.0057z" fill="#e3ffe5" stroke="#5fab13" stroke-width="1.8162" stroke-linecap="butt"/><path d="M217.615,179.5794c-0.009,0 -0.015,0 -0.015,0c0,0 0.006,0 0.015,0c0.009,0 0.021,0 0.035,0c0.014,0 0.026,0 0.035,0c0.009,0 0.015,0 0.015,0c0,0 -0.006,0 -0.015,0c-0.009,0 -0.021,0 -0.035,0c-0.014,0 -0.026,0 -0.035,0z" fill="#e9f8ff" stroke="none" stroke-width="1" stroke-linecap="butt"/><path d="M242.35,180.5794c2.069,0 3.944,0.84 5.302,2.198c1.358,1.358 2.198,3.233 2.198,5.302c0,2.069 -0.84,3.944 -2.198,5.302c-1.358,1.358 -3.233,2.198 -5.302,2.198c-2.069,0 -3.944,-0.84 -5.302,-2.198c-1.358,-1.358 -2.198,-3.233 -2.198,-5.302c0,-2.069 0.84,-3.944 2.198,-5.302c1.358,-1.358 3.233,-2.198 5.302,-2.198z" fill="#000000" stroke="none" stroke-width="1" stroke-linecap="butt"/><path d="M242.55011,179.52689c2.331,0 4.444,0.356 5.973,0.931c1.53,0.574 2.477,1.368 2.477,2.244c0,0.876 -0.947,1.67 -2.477,2.244c-1.529,0.575 -3.642,0.931 -5.973,0.931c-2.331,0 -4.444,-0.356 -5.973,-0.931c-1.53,-0.574 -2.477,-1.368 -2.477,-2.244c0,-0.876 0.947,-1.67 2.477,-2.244c1.529,-0.575 3.642,-0.931 5.973,-0.931z" fill="#e3ffe5" stroke="none" stroke-width="1" stroke-linecap="butt"/><path d="M259.1,192.3794c0.028,0 0.053,0.011 0.071,0.029c0.018,0.018 0.029,0.043 0.029,0.071c0,0.028 -0.011,0.053 -0.029,0.071c-0.018,0.018 -0.043,0.029 -0.071,0.029c-0.028,0 -0.053,-0.011 -0.071,-0.029c-0.018,-0.018 -0.029,-0.043 -0.029,-0.071c0,-0.028 0.011,-0.053 0.029,-0.071c0.018,-0.018 0.043,-0.029 0.071,-0.029z" fill="#e3ffe5" stroke="none" stroke-width="1" stroke-linecap="butt"/><path d="M223.32945,182.68406l-16.5657,6.50046" fill="none" stroke="#75d217" stroke-width="2" stroke-linecap="round"/><path d="M209.69945,189.60391c0,1.38972 -1.12659,2.51631 -2.51631,2.51631c-1.38972,0 -2.51631,-1.12659 -2.51631,-2.51631c0,-1.38972 1.12659,-2.51631 2.51631,-2.51631c1.38972,0 2.51631,1.12659 2.51631,2.51631z" fill="#75d217" stroke="#5fab13" stroke-width="0" stroke-linecap="butt"/><path d="M260.4124,183.07083l16.5657,6.50046" data-paper-data="{&quot;index&quot;:null}" fill="none" stroke="#75d217" stroke-width="2" stroke-linecap="round"/><path d="M276.55872,187.47437c1.38972,0 2.5163,1.12659 2.5163,2.51631c0,1.38972 -1.12658,2.51631 -2.5163,2.51631c-1.38972,0 -2.51631,-1.12659 -2.51631,-2.51631c0,-1.38972 1.12659,-2.51631 2.51631,-2.51631z" data-paper-data="{&quot;index&quot;:null}" fill="#75d217" stroke="#5fab13" stroke-width="0" stroke-linecap="butt"/><path d="M235.06691,204.21127l-3.718,17.40273" fill="none" stroke="#75d217" stroke-width="2" stroke-linecap="round"/><path d="M233.31836,219.39693c1.15907,0.76673 1.47712,2.3279 0.71039,3.48697c-0.76673,1.15907 -2.3279,1.47712 -3.48697,0.71038c-1.15907,-0.76673 -1.47712,-2.3279 -0.71039,-3.48697c0.76673,-1.15907 2.3279,-1.47712 3.48697,-0.71039z" fill="#75d217" stroke="#5fab13" stroke-width="0" stroke-linecap="butt"/><path d="M251.18888,204.17865l3.718,17.40273" data-paper-data="{&quot;index&quot;:null}" fill="none" stroke="#75d217" stroke-width="2" stroke-linecap="round"/><path d="M256.4244,220.0747c0.76674,1.15907 0.44868,2.72023 -0.71039,3.48696c-1.15907,0.76674 -2.72024,0.44869 -3.48697,-0.71038c-0.76674,-1.15907 -0.44869,-2.72024 0.71039,-3.48698c1.15907,-0.76674 2.72024,-0.44868 3.48697,0.71039z" data-paper-data="{&quot;index&quot;:null}" fill="#75d217" stroke="#5fab13" stroke-width="0" stroke-linecap="butt"/></g></g></svg>