<svg version="1.1" xmlns="http://www.w3.org/2000/svg" xmlns:xlink="http://www.w3.org/1999/xlink" width="34.81077" height="33.74306" viewBox="0,0,34.81077,33.74306"><defs><linearGradient x1="239.98385" y1="167.81248" x2="239.98385" y2="192.18749" gradientUnits="userSpaceOnUse" id="color-1"><stop offset="0" stop-color="#153769"/><stop offset="1" stop-color="#020408"/></linearGradient><linearGradient x1="239.98385" y1="175.71622" x2="239.98385" y2="184.28375" gradientUnits="userSpaceOnUse" id="color-2"><stop offset="0" stop-color="#13325f"/><stop offset="1" stop-color="#071016"/></linearGradient><radialGradient cx="239.62837" cy="179.88497" r="16.29599" gradientUnits="userSpaceOnUse" id="color-3"><stop offset="0" stop-color="#d6ffff" stop-opacity="0"/><stop offset="1" stop-color="#d6ffff"/></radialGradient></defs><g transform="translate(-222.58299,-163.17337)"><g data-paper-data="{&quot;isPaintingLayer&quot;:true}" fill-rule="nonzero" stroke-linejoin="miter" stroke-miterlimit="10" stroke-dasharray="" stroke-dashoffset="0" style="mix-blend-mode: normal"><path d="M250.56496,190.9381c0,0 -0.74535,1.24943 -3.84311,1.24943c-4.59934,0 -10.84319,0 -13.47598,0c-2.3643,0 -4.0216,-1.51717 -4.0216,-1.51717c0,0 -1.42793,-0.8273 -1.42793,-3.91748c0,-4.59562 0,-10.84049 0,-13.47598c0,-2.36931 1.60641,-3.94723 1.60641,-3.94723c0,0 1.47879,-1.51717 3.84311,-1.51717c2.66701,0 9.03956,0 13.65447,0c3.00916,0 3.93236,1.60641 3.93236,1.60641c0,0 1.33867,1.31182 1.33867,3.59024c0,2.61992 0,8.97464 0,13.65447c0,3.13862 -1.60641,4.27445 -1.60641,4.27445z" data-paper-data="{&quot;index&quot;:null}" fill="url(#color-1)" stroke="none" stroke-width="0" stroke-linecap="butt"/><path d="M239.98385,188.21052c-4.53457,0 -8.21054,-3.67599 -8.21054,-8.21054c0,-4.53457 3.67599,-8.21054 8.21054,-8.21054c4.53457,0 8.21054,3.67599 8.21054,8.21054c0,4.53457 -3.67599,8.21054 -8.21054,8.21054z" data-paper-data="{&quot;index&quot;:null}" fill="#ffffff" stroke="none" stroke-width="0" stroke-linecap="butt"/><path d="M239.98385,184.28374c-2.36586,0 -4.28376,-1.9179 -4.28376,-4.28376c0,-2.36586 1.9179,-4.28376 4.28376,-4.28376c2.36586,0 4.28376,1.9179 4.28376,4.28376c0,2.36586 -1.9179,4.28376 -4.28376,4.28376z" data-paper-data="{&quot;index&quot;:null}" fill="url(#color-2)" stroke="none" stroke-width="0" stroke-linecap="butt"/><path d="M238.09389,180.58924c-0.93489,0 -1.6928,-0.75789 -1.6928,-1.6928c0,-0.93489 0.75789,-1.6928 1.6928,-1.6928c0.93489,0 1.69279,0.75789 1.69279,1.6928c0,0.93489 -0.75788,1.6928 -1.69279,1.6928z" data-paper-data="{&quot;index&quot;:null}" fill="#ffffff" stroke="none" stroke-width="0" stroke-linecap="butt"/><path d="M255.67372,178.69253c0.6314,8.49611 -6.04051,15.91742 -14.90212,16.57599c-8.86161,0.65857 -16.55721,-5.69501 -17.18861,-14.19111c-0.6314,-8.49611 6.0405,-15.91742 14.90212,-16.57599c8.86161,-0.65857 16.55721,5.69502 17.18861,14.19112z" data-paper-data="{&quot;index&quot;:null}" fill="url(#color-3)" stroke="#1d726a" stroke-width="2" stroke-linecap="butt"/><path d="M241.27672,195.8061c-6.60816,0.89144 -14.31328,-3.83149 -14.74809,-6.52961c-0.1183,-0.73408 10.86901,3.35001 20.73977,-1.16618c4.09164,-1.87206 2.69728,-8.07235 2.12649,-9.93676c-1.24118,-4.05411 -4.2884,-7.77848 -7.50909,-8.5529c-6.29678,-1.51408 -14.88528,1.38967 -15.10846,0.99312c-0.38279,-0.68014 2.94504,-5.45257 12.06463,-6.4404c8.99921,-0.97479 16.88938,6.11386 17.55179,15.02727c0.37049,4.98542 -2.30999,14.87777 -15.11704,16.60546z" data-paper-data="{&quot;index&quot;:null}" fill="#e6e6e6" stroke="#6b6b6b" stroke-width="2" stroke-linecap="butt"/><path d="M251.14956,186.29178c0.03037,2.2631 -6.19284,5.38729 -12.75962,5.87531c-6.56678,0.48802 -11.98345,-2.53306 -12.10944,-2.99349c-0.16171,-0.59098 6.47618,1.207 13.04296,0.71899c6.56677,-0.48802 11.81515,-4.41674 11.82609,-3.60082z" data-paper-data="{&quot;index&quot;:null}" fill="#bcbcbc" stroke="#6b6b6b" stroke-width="2" stroke-linecap="butt"/><path d="M255.289,184.50257l-2.89128,-0.88769" data-paper-data="{&quot;index&quot;:null}" fill="none" stroke="#6b6b6b" stroke-width="2" stroke-linecap="round"/><path d="M245.41907,171.30842c0,0 0.20091,-1.67095 1.83579,-2.68519c1.74268,-1.08112 3.65369,-0.41025 3.65369,-0.41025" data-paper-data="{&quot;index&quot;:null}" fill="none" stroke="#6b6b6b" stroke-width="2" stroke-linecap="round"/><g data-paper-data="{&quot;index&quot;:null}" stroke="#385759" stroke-width="2" stroke-linecap="butt"><path d="M254.00684,183.3935c0.12701,2.95683 -1.08183,5.40975 -2.70001,5.47875c-1.61818,0.069 -3.03294,-2.27204 -3.15994,-5.22888c-0.12701,-2.95683 1.08183,-5.40974 2.70001,-5.47874c1.61818,-0.069 3.03294,2.27205 3.15994,5.22888z" fill="#99adc0"/><path d="M252.09371,187.10603c-1.17361,0.05213 -2.19245,-1.54677 -2.27564,-3.57127c-0.08319,-2.02449 0.80078,-3.70791 1.9744,-3.76004c1.17361,-0.05213 2.19245,1.54678 2.27564,3.57127c0.08318,2.02449 -0.80078,3.70791 -1.9744,3.76004z" fill="#c2d1e0"/></g></g></g></svg>