<svg version="1.1" xmlns="http://www.w3.org/2000/svg" xmlns:xlink="http://www.w3.org/1999/xlink" width="302.41276" height="252.79758" viewBox="0,0,302.41276,252.79758"><g transform="translate(-88.16133,-56.6293)"><g data-paper-data="{&quot;isPaintingLayer&quot;:true}" fill="none" fill-rule="nonzero" stroke="none" stroke-width="none" stroke-linecap="none" stroke-linejoin="miter" stroke-miterlimit="10" stroke-dasharray="" stroke-dashoffset="0" font-family="none" font-weight="none" font-size="none" text-anchor="none" style="mix-blend-mode: normal"><g data-paper-data="{&quot;origPos&quot;:null}"><path d="M380,220c-4.31592,7.07121 -64.904,7 -142.5,7c-77.596,0 -133.40616,1.53314 -138.5,-5c-4,-5.13024 -6.91102,-7.95702 -7.45697,-13.05812c-0.64915,-6.06531 3.57944,-12.28409 9.36506,-14.21699c21.08669,-7.04481 89.18729,-2.72489 137.59192,-2.72489c0,0 121.70655,-3.60085 139.36453,3.34441c0,0 8.54766,7.27008 8.11302,12.65377c0,0 1.32242,2.50376 -0.44096,4.70022c0,0 0.61633,0.954 -0.54335,2.76587c-0.79359,1.2399 0.67342,-4.74855 -4.99325,4.53572z" data-paper-data="{&quot;origPos&quot;:null}" fill="#8a6348" stroke="#000000" stroke-width="5" stroke-linecap="butt"/><path d="M289.5,193.5c19.32997,0 41.5,0 41.5,0l-41.5,25l-44,-24c0,0 24.67003,-1 44,-1z" data-paper-data="{&quot;origPos&quot;:null}" fill="#f0ec7d" stroke="none" stroke-width="0" stroke-linecap="butt"/><path d="M187,192c19.32997,0 39,2 39,2l-39,23l-40.5,-24c0,0 21.17003,-1 40.5,-1z" data-paper-data="{&quot;origPos&quot;:null}" fill="#f0ec7d" stroke="none" stroke-width="0" stroke-linecap="butt"/><path d="M110,177c0,0 -0.3843,-26.77179 3.86453,-40.35517c5.93766,-18.98247 14.03489,-28.58263 29.12224,-41.54262c27.87454,-23.94414 53.03695,-36.65076 89.02975,-35.94502c34.72424,0.68086 72.89976,4.81859 96.99604,29.8307c15.13499,15.71022 24.12024,27.30648 30.93823,48.0283c5.03276,15.296 5.0492,40.98381 5.0492,40.98381l-253,-2l2,15h248v-12z" data-paper-data="{&quot;origPos&quot;:null}" fill="#ecab7b" stroke="#000000" stroke-width="5" stroke-linecap="round"/><path d="M361.33333,188.33333c0,0 -54.5216,1 -123.83333,1c-69.31174,0 -121.83333,-0.66667 -121.83333,-0.66667l-0.72822,-9.42932c0,0 80.39037,0.42932 122.89489,0.42932l122.5843,1.14621z" data-paper-data="{&quot;origPos&quot;:null}" fill="#ed2323" stroke="none" stroke-width="0" stroke-linecap="butt"/><path d="M352.00001,191.00001c0,0 -18.71365,4.94583 -29.41123,10.03156c-13.10846,6.23188 -31.58878,18.96843 -31.58878,18.96843l-56,-28l-48,27c0,0 -14.77137,-12.39077 -25.5059,-17.12124c-12.29097,-5.41637 -34.4941,-10.87876 -34.4941,-10.87876" data-paper-data="{&quot;origPos&quot;:null}" fill="none" stroke="#000000" stroke-width="5" stroke-linecap="round"/><path d="M92.00037,225.2931c-0.04309,-2.49963 0.76739,-1.06086 0.76739,-1.06086l0.12096,0.12096c0.97835,-1.11724 2.13767,0.83489 3.09351,-0.12096c0,0 1.51776,-1.01776 3.28553,0.75c1.76776,1.76776 0.5,-0.21447 0.5,-0.21447c-0.23738,0.23738 -0.50535,0.48173 -0.78902,0.73227c0.00711,-0.00002 0.0142,-0.00003 0.02125,-0.00003c4.5,0 9,0 13.5,0c3.70879,0.20773 7.02876,1.55907 10.89366,1.07465c6.27781,-0.78685 12.42711,-2.05043 18.60634,-3.07465c2.30549,-0.38214 4.47738,0.3723 6.70943,-0.37171c4.38461,-1.20267 9.25153,-0.62829 13.79057,-0.62829c8.5,0 17,0 25.5,0c9.34695,0 19.31267,-0.97122 28.60634,0.07465c1.16517,0.13112 2.23361,0.75483 3.39366,0.92535c2.70812,0.39809 5.76335,0 8.5,0c14.35395,0 28.71062,-0.08024 43.06423,0.00976c3.31223,0.09529 6.3254,1.63001 9.43577,1.99024c1.85654,0.21502 3.74912,-0.13436 5.60634,0.07465c1.16517,0.13112 2.23361,0.75483 3.39366,0.92535c6.84829,1.00667 14.57858,0 21.5,0c8,0 16,0 24,0c4.17843,0 8.83976,0.58812 12.89366,-0.42535c2.09836,-0.46265 3.81822,-0.17231 5.81577,-0.44636c3.36994,-0.46232 6.89896,-2.11409 10.18423,-3.05364c2.31077,-0.66085 4.59517,-0.57277 6.81577,-0.94636c2.59628,-0.43679 4.31239,-2.32617 6.79057,-3.12829c0.83843,-0.27138 1.75234,-0.06445 2.64195,-0.01148c0.48099,-0.09448 1.04547,-0.04815 1.62836,0.33425c0.17775,0.09082 0.35496,0.2072 0.51722,0.35632l0.00304,-0.5508c1.88365,0.62788 3.55298,1.17973 4.97719,2.60395c3.51387,4.33158 2.73224,9.49031 2.73224,14.76776c0,2.59799 0.27554,5.28487 -0.73224,7.76776c-0.49944,1.23048 -2.87313,2.13414 -3.39605,3.02281c-0.72495,1.23201 -0.86393,2.75417 -1.60395,3.97719c-0.54458,0.90003 -1.5634,1.52483 -1.89605,2.52281c-0.69371,1.02704 -1.20477,2.20477 -2.08114,3.08114c-1.86471,1.86471 -8.19191,1.39602 -10.58114,1c-0.78107,-0.12946 -1.42867,-0.74036 -2.20943,-0.87171c-2.95002,-0.49631 -5.00596,-0.06115 -7.76776,-1.73224c-1.47296,-0.89124 -2.43347,-2.6037 -3.28163,-4.37898c-0.06635,0.67225 -0.12318,1.232 -0.18284,1.37899c-0.49584,1.22163 -1.84918,1.92142 -2.97719,2.60395c-0.7147,0.43244 -1.65747,0.33322 -2.40382,0.70842c-1.49205,0.75007 -2.79793,1.90562 -4.38675,2.41987c-2.82045,0.9129 -7.51088,0 -10.5,0c-5.84935,0 -11.7548,-0.28303 -17.29057,-2.12829c-1.27832,-0.42611 -2.61363,-0.82242 -3.79233,-1.4953c-0.20662,0.30447 -0.41915,0.60457 -0.64934,0.89136c-1.95341,2.43379 -5.11697,4.73224 -8.26776,4.73224c-2.68724,0 -5.63536,0.31182 -8.29057,-0.12829c-2.72165,-0.45112 -5.49983,-1.41586 -8.20943,-1.87171c-2.60198,-0.43775 -5.94157,0.05347 -8.29057,-1.62829c-0.09593,-0.06868 -0.19203,-0.13765 -0.28809,-0.20704c-1.12788,0.63234 -4.06915,1.08668 -4.815,1.26069c-4.24172,0.98958 -8.76066,0.57464 -13.10634,0.57464c-2.68724,0 -5.63536,0.31182 -8.29057,-0.12829c-0.78107,-0.12946 -1.42867,-0.74036 -2.20943,-0.87171c-3.40223,-0.57238 -7.00673,0.67415 -10.38675,-0.41987c-2.33605,-0.75612 -4.6304,-3.28933 -6.7625,-5.06208l-0.06018,0.35366c-1.68957,0.56319 -3.83118,0.91783 -5.40382,1.70842c-3.14107,1.57904 -5.15203,3.41987 -8.88675,3.41987c-2.68724,0 -5.63536,0.31182 -8.29057,-0.12829c-1.77763,-0.29465 -3.48294,-1.58125 -5.20943,-1.87171c-1.5856,-0.26676 -3.27792,-0.12752 -4.76776,-0.73224c-0.43679,-0.17729 -0.91506,-0.53631 -1,-1c-0.04883,-0.2666 1.02232,-0.17468 0.76776,-0.26776c-1.62811,-0.59537 -3.57442,-0.25414 -5.08013,-1.11325c-0.52194,-0.2978 -1.0255,-0.89962 -1,-1.5c0.01622,-0.38208 1.36141,-0.12766 1.08013,-0.38675c-0.29782,-0.27433 -0.68237,-0.3265 -1.10095,-0.29145l-0.02733,0.08202c-0.76478,2.29436 -1.22839,4.22839 -3.08114,6.08114c-1.05594,1.05594 -3.89188,1.12829 -5.29057,1.12829c-4.0871,0 -8.89963,0.66869 -12.79057,-0.62829c-1.50136,-0.78665 -3.53982,-0.3152 -5.20943,-0.37171c-2.38724,-0.0808 -4.57414,-0.73444 -6.79057,-1.62829c-1.11488,-0.44961 -5.17493,-2.45388 -5.47719,-4.10395c-0.04883,-0.2666 1.02232,-0.17468 0.76776,-0.26776c-0.89205,-0.32621 -2.75969,0.41824 -3.56993,0.21938c-0.40755,1.2752 -0.84997,2.57688 -1.6395,3.65233c-0.47947,0.6531 -3.69804,1.23268 -4.5,1.5c-3.64886,1.00086 -7.51569,0.62829 -11.29057,0.62829c-3.16806,0 -6.66063,0.3905 -9.79057,-0.12829c-2.46873,-0.4092 -3.6456,-2.16401 -5.49553,-3.19357c-0.72575,-0.40391 -1.49676,-0.71269 -2.27921,-0.99746c-3.38184,6.25907 -9.97758,5.31931 -16.43469,5.31931c-2.59799,0 -5.28487,0.27554 -7.76776,-0.73224c-1.67217,-0.67871 -3.70507,-3.70507 -5,-5c-4.35927,-5.37373 -3.56297,-14.95711 -0.80066,-21.87199c-0.06606,-0.04343 -0.13247,-0.08615 -0.19934,-0.12801l1,-0.75c0,0 -0.18877,1.02496 -0.23186,-1.47467zM381,223.5c-1,0 -2.05899,-0.33838 -3,0c-0.70832,0.25472 -0.9395,1.24447 -1.61325,1.58013c-0.07252,0.03613 -3.16356,1.21988 -3.59618,1.29158c-1.24723,0.20673 -2.53976,-0.05558 -3.79057,0.12829c-4.48715,0.65959 -8.73636,3.2167 -13.20943,3.87171c-2.16888,0.3176 -4.08829,-0.08606 -6.18423,0.55364c-4.48183,1.12046 -9.50278,0.57465 -14.10634,0.57465c-8,0 -16,0 -24,0c-6.94347,0 -14.62309,0.96236 -21.5,0c-1.56146,-0.21851 -3.03898,-0.90342 -4.60634,-1.07465c-1.4561,-0.15907 -2.94133,0.26512 -4.39366,0.07465c-3.22624,-0.42312 -6.1139,-2.11146 -9.46713,-1.99034c-14.34316,-0.08993 -28.68938,-0.00966 -43.03287,-0.00966c-2.74534,0 -5.78062,0.38055 -8.5,0c-1.56146,-0.21851 -3.03898,-0.90342 -4.60634,-1.07465c-8.85686,-0.96756 -18.47543,0.07465 -27.39366,0.07465c-9,0 -18,0 -27,0c-3.00207,0 -8.0574,-1.01782 -10.70943,0.37171c-2.80954,0.93651 -5.4757,0.15472 -8.29057,0.62829c-3.05806,0.51448 -6.24179,1.53215 -9.39366,1.92535c-1.52383,0.1901 -3.08261,-0.11633 -4.60634,0.07465c-2.12752,0.26666 -3.75262,0.96358 -6,1c-1.51429,0.02454 -3.49192,0.24997 -5,0c-1.47856,-0.24508 -3.00126,-1.27103 -4.5,-1c-4.5,0 -9,0 -13.5,0c-1.03794,0 -2.71296,0.25591 -4.13984,0.25788c-1.06556,3.00295 -1.36016,6.86074 -1.36016,9.74212c0,1.13653 -0.50888,6.62995 1.26776,6.73224c1.24354,1.24354 3.37805,4.40688 5,5c0.24408,0.08926 -0.49118,-0.59948 -0.26776,-0.73224c0.85967,-0.51084 2,0 3,0c3.33919,0 7.2139,0.55284 10.5,0c1.15458,-0.19424 3.41058,-1.37074 3.12829,-2.79057l0.44506,-1.33517c0.029,-0.09816 0.06399,-0.19905 0.10546,-0.30273c0.92848,-2.32119 3.24967,-1.39272 3.24967,-1.39272c1.54746,0.61899 3.20132,1.01963 4.64238,1.85695c1.17112,0.68048 1.94273,1.92847 3.11072,2.61429c1.09225,0.64135 3.06449,0.34994 4.31842,0.34994c3.5,0 7,0 10.5,0c1.63811,0 3.74323,0.39651 5.20943,-0.37171c0.85376,-0.28458 1.70751,-0.56917 2.56126,-0.85376c-0.15298,-0.34778 0.00204,-0.96496 0.22931,-1.27453c1.10312,-1.50261 2.76506,-3.04943 4.70943,-3.37171c1.24723,-0.20673 2.61914,-0.60376 3.79057,-0.12829c2.74095,1.11252 3.47241,3.38159 5.76776,4.73224c3.55675,2.09288 8.61568,0.82435 12.52281,1.89605c3.30611,1.10204 7.69235,0.37171 11.20943,0.37171c0.88906,0 2.99498,-0.15726 3.70943,-0.87171c0.25555,-0.25555 -0.94416,0.41557 -1.08114,0.08114c-0.39953,-0.97545 0.66666,-2 1,-3l0.41326,-1.23977c0.32586,-1.96966 2.45845,-1.96966 2.45845,-1.96966c1,0 2.13144,-0.49557 3,0c1.67739,0.95705 2.65967,2.80486 4.08013,4.11325c0.30777,0.28349 -0.84667,-0.79068 -0.58013,-1.11325c1.33829,-1.61963 4.22146,2.34962 5.26776,2.73224c0.24408,0.08926 -0.49118,-0.59948 -0.26776,-0.73224c0.71896,-0.42723 3.5082,0.54424 3.79057,0.62829c4.02514,1.19811 6.98003,1.37171 11.20943,1.37171c2.64927,0 3.86509,-1.46011 6.11325,-2.58013c1.91886,-0.95595 4.16143,-1.50622 6.21868,-2.16804c0.02762,-0.04585 0.05692,-0.09204 0.08794,-0.13859c0.90578,-1.35867 2.10737,-1.23828 2.83192,-0.99132c0.3491,0.10186 0.76988,0.28898 1.11117,0.63239c2.4063,1.771 4.78848,4.68195 7.52379,5.66556c0.13641,0.04905 -0.02704,-0.38336 0.11325,-0.41987c0.48388,-0.12594 1,0 1.5,0c1.5,0 3,0 4.5,0c1.93678,0 3.44398,0.81762 5.29057,1.12829c1.98856,0.33455 4.647,-0.12829 6.70943,-0.12829c3.37543,0 7.1657,0.49013 10.5,0c1.42908,-0.21007 2.93572,-0.76416 4.32926,-1.24244c0.05697,-0.31972 0.12475,-0.64298 0.15492,-0.95391c-0.00872,-0.18994 -0.01243,-0.38152 -0.01301,-0.56557c-0.08857,-0.46829 -0.32971,-1.02296 0.02884,-1.23809c0,-0.75 0,-1.5 0,-1.5c0,-1.38071 1.11929,-2.5 2.5,-2.5c1.38071,0 2.5,1.11929 2.5,2.5v1.5c0.75396,0.45238 0.18206,1.65545 0.03297,2.61912c0.89263,0.15663 3.8587,1.44205 4.2576,1.50916c6.19412,1.04208 12.30127,1.87171 18.70943,1.87171c1.83902,0 3.44648,-1.65339 4.73224,-3.26776c0.23368,-0.2934 1.49977,-2.59068 1.68764,-2.61899c3.99473,-0.60183 7.0399,2.37056 10.8707,3.01504c4.21658,0.70938 8.33002,0.87171 12.70943,0.87171c2.89685,0 7.80229,0.9701 10.5,0c0.70832,-0.25472 0.9395,-1.24447 1.61325,-1.58013c1.54624,-0.77033 3.94243,-0.83755 4.61899,-2.68764c0.08925,-0.24408 -0.59947,0.49118 -0.73224,0.26776c-0.78899,-1.32774 1.45218,-3.82028 1.73224,-4.26776l0.7022,-0.7022c0.16812,-0.2118 0.39007,-0.41766 0.67881,-0.61016c2.08013,-1.38675 3.46688,0.69338 3.46688,0.69338c1.42376,2.13564 2.03828,4.46626 3.29158,6.59618c1.10412,1.8764 6.01443,1.35199 7.91886,1.91886c2.05653,0.61214 7.17338,1.24547 8.91886,-0.5c0.25554,-0.25555 -0.72076,0.0541 -1.08114,0.08114c0.64981,-1.94943 2.13581,-2.8319 3.10395,-4.47719c0.87599,-1.48869 0.45553,-2.23414 2,-4c0.7042,-0.80514 2.63769,-2.00923 3,-3c0.08925,-0.24408 -0.59947,0.49118 -0.73224,0.26776c-0.81342,-1.36885 0,-5.856 0,-7.5c0,-2.14479 0.40671,-4.73645 -0.37171,-6.70943c-0.21615,-0.54786 -0.30807,-1.48896 -0.89605,-1.52281c-0.72526,-0.72527 -1.7924,-1.00258 -2.78114,-1.31749c-0.26758,0.04972 -0.45109,0.04972 -0.45109,0.04972z" data-paper-data="{&quot;origPos&quot;:null}" fill="#020104" stroke="none" stroke-width="0.5" stroke-linecap="butt"/><path d="M381.04974,223.49453c0,0 0.18351,0 0.45109,-0.04972c0.98874,0.31491 2.05594,0.59277 2.7812,1.31804c0.58798,0.03385 0.67995,0.9755 0.8961,1.52336c0.77842,1.97298 0.37186,4.56694 0.37186,6.71173c0,1.644 -0.81338,6.13372 0.00004,7.50257c0.13277,0.22342 0.82149,-0.51193 0.73224,-0.26785c-0.36231,0.99077 -2.29582,2.19591 -3.00002,3.00105c-1.54447,1.76586 -1.12407,2.51274 -2.00006,4.00143c-0.96814,1.64529 -2.45427,2.52943 -3.10408,4.47886c0.36038,-0.02704 1.33669,-0.33675 1.08115,-0.0812c-1.74548,1.74547 -6.96187,1.10257 -9.0184,0.49043c-1.90443,-0.56687 -6.81478,-0.04201 -7.9189,-1.91841c-1.2533,-2.12992 -1.86799,-4.45792 -3.29175,-6.59356c0,0 -1.28682,-2.07644 -3.36695,-0.68969c-0.28874,0.1925 -0.5107,0.39863 -0.67882,0.61043l-0.70221,0.70252c-0.28006,0.44748 -2.52136,2.94194 -1.73237,4.26968c0.13277,0.22342 0.8215,-0.51198 0.73225,-0.2679c-0.67656,1.85009 -3.07288,1.9187 -4.61912,2.68903c-0.67375,0.33566 -0.90503,1.32621 -1.61335,1.58093c-2.69771,0.9701 -7.60324,0.00067 -10.50009,0.00067c-4.37941,0 -8.5918,-0.17676 -12.80838,-0.88614c-3.8308,-0.64448 -6.77697,-3.60282 -10.7717,-3.00099c-0.18787,0.02831 -1.45425,2.32751 -1.68793,2.62091c-1.28576,1.61437 -2.8938,3.27064 -4.73282,3.27064c-6.40816,0 -12.51592,-0.82727 -18.71004,-1.86935c-0.3989,-0.06711 -3.46121,-1.37971 -4.35384,-1.53634c0.14909,-0.96367 0.72031,-2.16401 -0.03365,-2.61639l-0.00033,-1.49838c0,-1.38071 -1.02058,-2.4842 -2.40129,-2.4842c-1.38071,0 -2.5006,1.1228 -2.5006,2.50351c0,0 -0.00041,0.7518 -0.00041,1.5018c-0.35855,0.21513 -0.11779,0.77126 -0.02922,1.23955c0.00058,0.18405 0.0041,0.37628 0.01282,0.56622c-0.03017,0.31093 -0.0983,0.63532 -0.15527,0.95504c-1.39354,0.47828 -2.90133,1.03558 -4.33041,1.24565c-3.3343,0.49013 -7.12767,0.00642 -10.5031,0.00642c-2.06243,0 -4.72535,0.46939 -6.71391,0.13484c-1.84659,-0.31067 -3.35867,-1.12306 -5.29545,-1.12306c-1.5,0 -3.00925,0.00679 -4.50925,0.00679c-0.5,0 -1.02034,-0.1238 -1.50422,0.00214c-0.14029,0.03651 0.02227,0.46931 -0.11414,0.42026c-2.73531,-0.98361 -5.15013,-3.89226 -7.55643,-5.66326c-0.34129,-0.34341 -0.76999,-0.5334 -1.11909,-0.63526c-0.72455,-0.24696 -1.93572,-0.37314 -2.8415,0.98553c-0.03102,0.04655 -0.06026,0.09279 -0.08788,0.13864c-2.05725,0.66182 -4.30809,1.20407 -6.22695,2.16002c-2.24816,1.12002 -3.46651,2.57676 -6.11578,2.57676c-4.2294,0 -7.18981,-0.18415 -11.21495,-1.38226c-0.28237,-0.08405 -3.07252,-1.05813 -3.79148,-0.6309c-0.22342,0.13276 0.51219,0.82256 0.26811,0.7333c-1.0463,-0.38262 -3.93095,-4.35713 -5.26924,-2.7375c-0.26654,0.32257 0.88826,1.39825 0.58049,1.11476c-1.42046,-1.30839 -2.40387,-3.16202 -4.08126,-4.11907c-0.86856,-0.49557 -1.90082,-0.01277 -2.90082,-0.01277c0,0 -2.13283,-0.00171 -2.45869,1.96795l-0.41346,1.23859c-0.33334,1 -1.40011,2.02185 -1.00058,2.9973c0.13698,0.33443 1.33665,-0.33686 1.0811,-0.08131c-0.71445,0.71445 -2.91749,0.89554 -3.80655,0.89554c-3.51708,0 -7.90383,0.72801 -11.20994,-0.37403c-3.90713,-1.0717 -8.96652,0.19406 -12.52327,-1.89882c-2.29535,-1.35065 -3.02716,-3.62308 -5.76811,-4.7356c-1.17143,-0.47547 -2.44357,-0.08524 -3.6908,0.12149c-1.94437,0.32228 -3.60645,1.86741 -4.70957,3.37002c-0.22727,0.30957 -0.38236,0.92606 -0.22938,1.27384c-0.85375,0.28459 -1.70754,0.56888 -2.5613,0.85346c-1.4662,0.76822 -3.6706,0.38365 -5.30871,0.38365c-3.5,0 -7.00006,-0.00057 -10.50006,-0.00057c-1.25393,0 -3.22621,0.29105 -4.31846,-0.3503c-1.16799,-0.68582 -1.93971,-1.93506 -3.11083,-2.61554c-1.44106,-0.83732 -3.09498,-1.23887 -4.64244,-1.85786c0,0 -2.22138,-0.93458 -3.14986,1.38661c-0.04147,0.10368 -0.07647,0.20445 -0.10547,0.30261l-0.4451,1.33465c0.28229,1.41983 -1.9738,2.59534 -3.12838,2.78958c-3.2861,0.55284 -7.26036,0.00949 -10.59955,0.00949c-1,0 -2.04074,-0.51986 -2.90041,-0.00902c-0.22342,0.13276 0.41226,0.83069 0.16818,0.74143c-1.62195,-0.59312 -3.7566,-3.75833 -5.00014,-5.00187c-1.77664,-0.10229 -1.26784,-5.59803 -1.26784,-6.73456c0,-2.88138 0.29468,-6.74252 1.36024,-9.74547c1.42688,-0.00197 3.10191,-0.25805 4.13985,-0.25805c4.5,0 9.00002,-0.00032 13.50002,-0.00032c1.49874,-0.27103 3.12124,0.76124 4.5998,1.00632c1.50808,0.24997 3.3859,0.01838 4.90019,-0.00616c2.24738,-0.03642 3.87252,-0.73395 6.00004,-1.00061c1.52373,-0.19098 3.08253,0.11526 4.60636,-0.07484c3.15187,-0.3932 6.33573,-1.41222 9.39379,-1.9267c2.81487,-0.47357 5.48113,0.30739 8.29067,-0.62912c2.65203,-1.38953 7.7075,-0.37276 10.70957,-0.37276c9,0 18.00065,-0.00359 27.00065,-0.00359c8.91823,0 18.54039,-1.05273 27.39725,-0.08517c1.56736,0.17123 3.04586,0.85416 4.60732,1.07267c2.71938,0.38055 5.76212,-0.01058 8.50746,-0.01058c14.34349,0 28.77402,-0.06203 43.11718,0.0279c3.35323,-0.12112 6.24237,1.5728 9.46861,1.99592c1.45233,0.19047 2.93773,-0.23286 4.39383,-0.07379c1.56736,0.17123 3.04519,0.85799 4.60665,1.0765c6.87691,0.96236 14.5568,0.00217 21.50027,0.00217c8,0 16.00012,0.00128 24.00012,0.00128c4.60356,0 9.52479,0.55331 14.00662,-0.56715c2.09594,-0.6397 4.01535,-0.236 6.18423,-0.5536c4.47307,-0.65501 8.72237,-3.21101 13.20952,-3.8706c1.25081,-0.18387 2.54333,0.07835 3.79056,-0.12838c0.43262,-0.0717 3.52369,-1.25511 3.59621,-1.29124c0.67375,-0.33566 0.90498,-1.32491 1.6133,-1.57963c0.94101,-0.33838 2.0994,-0.01098 3.0994,-0.01098z" data-paper-data="{&quot;noHover&quot;:false,&quot;origItem&quot;:[&quot;Path&quot;,{&quot;applyMatrix&quot;:true,&quot;segments&quot;:[[[377,223.5],[0,0],[-1,0]],[[374,223.5],[0.94101,-0.33838],[-0.70832,0.25472]],[[372.38675,225.08013],[0.67375,-0.33566],[-0.07252,0.03613]],[[368.79057,226.37171],[0.43262,-0.0717],[-1.24723,0.20673]],[[365,226.5],[1.25081,-0.18387],[-4.48715,0.65959]],[[351.79057,230.37171],[4.47307,-0.65501],[-2.16888,0.3176]],[[345.60634,230.92535],[2.09594,-0.6397],[-4.48183,1.12046]],[[331.5,231.5],[4.60356,0],[-8,0]],[[307.5,231.5],[8,0],[-6.94347,0]],[[286,231.5],[6.87691,0.96236],[-1.56146,-0.21851]],[[281.39366,230.42535],[1.56736,0.17123],[-1.4561,-0.15907]],[[277,230.5],[1.45233,0.19047],[-3.22624,-0.42312]],[[267.53287,228.50966],[3.35323,-0.12112],[-14.34316,-0.08993]],[[224.5,228.5],[14.34349,0],[-2.74534,0]],[[216,228.5],[2.71938,0.38055],[-1.56146,-0.21851]],[[211.39366,227.42535],[1.56736,0.17123],[-8.85686,-0.96756]],[[184,227.5],[8.91823,0],[-9,0]],[[157,227.5],[9,0],[-3.00207,0]],[[146.29057,227.87171],[2.65203,-1.38953],[-2.80954,0.93651]],[[138,228.5],[2.81487,-0.47357],[-3.05806,0.51448]],[[128.60634,230.42535],[3.15187,-0.3932],[-1.52383,0.1901]],[[124,230.5],[1.52373,-0.19098],[-2.12752,0.26666]],[[118,231.5],[2.24738,-0.03642],[-1.51429,0.02454]],[[113,231.5],[1.50808,0.24997],[-1.47856,-0.24508]],[[108.5,230.5],[1.49874,-0.27103],[-4.5,0]],[[95,230.5],[4.5,0],[-1.03794,0]],[[90.86016,230.75788],[1.42688,-0.00197],[-1.06556,3.00295]],[[89.5,240.5],[0,-2.88138],[0,1.13653]],[[90.76776,247.23224],[-1.77664,-0.10229],[1.24354,1.24354]],[[95.76776,252.23224],[-1.62195,-0.59312],[0.24408,0.08926]],[[95.5,251.5],[-0.22342,0.13276],[0.85967,-0.51084]],[[98.5,251.5],[-1,0],[3.33919,0]],[[109,251.5],[-3.2861,0.55284],[1.15458,-0.19424]],[[112.12829,248.70943],[0.28229,1.41983],[0,0]],[[112.57335,247.37426],[0,0],[0.029,-0.09816]],[[112.67881,247.07153],[-0.04147,0.10368],[0.92848,-2.32119]],[[115.92848,245.67881],[0,0],[1.54746,0.61899]],[[120.57086,247.53576],[-1.44106,-0.83732],[1.17112,0.68048]],[[123.68158,250.15005],[-1.16799,-0.68582],[1.09225,0.64135]],[[128,250.49999],[-1.25393,0],[3.5,0]],[[138.5,250.49999],[-3.5,0],[1.63811,0]],[[143.70943,250.12828],[-1.4662,0.76822],[0.85376,-0.28458]],[[146.27069,249.27452],[-0.85375,0.28459],[-0.15298,-0.34778]],[[146.5,247.99999],[-0.22727,0.30957],[1.10312,-1.50261]],[[151.20943,244.62828],[-1.94437,0.32228],[1.24723,-0.20673]],[[155,244.49999],[-1.17143,-0.47547],[2.74095,1.11252]],[[160.76776,249.23223],[-2.29535,-1.35065],[3.55675,2.09288]],[[173.29057,251.12828],[-3.90713,-1.0717],[3.30611,1.10204]],[[184.5,251.49999],[-3.51708,0],[0.88906,0]],[[188.20943,250.62828],[-0.71445,0.71445],[0.25555,-0.25555]],[[187.12829,250.70942],[0.13698,0.33443],[-0.39953,-0.97545]],[[188.12829,247.70942],[-0.33334,1],[0,0]],[[188.54155,246.46965],[0,0],[0.32586,-1.96966]],[[191,244.49999],[0,0],[1,0]],[[194,244.49999],[-0.86856,-0.49557],[1.67739,0.95705]],[[198.08013,248.61324],[-1.42046,-1.30839],[0.30777,0.28349]],[[197.5,247.49999],[-0.26654,0.32257],[1.33829,-1.61963]],[[202.76776,250.23223],[-1.0463,-0.38262],[0.24408,0.08926]],[[202.5,249.49999],[-0.22342,0.13276],[0.71896,-0.42723]],[[206.29057,250.12828],[-0.28237,-0.08405],[4.02514,1.19811]],[[217.5,251.49999],[-4.2294,0],[2.64927,0]],[[223.61325,248.91986],[-2.24816,1.12002],[1.91886,-0.95595]],[[229.83193,246.75182],[-2.05725,0.66182],[0.02762,-0.04585]],[[229.91987,246.61323],[-0.03102,0.04655],[0.90578,-1.35867]],[[232.75179,245.62191],[-0.72455,-0.24696],[0.3491,0.10186]],[[233.86296,246.2543],[-0.34129,-0.34341],[2.4063,1.771]],[[241.38675,251.91986],[-2.73531,-0.98361],[0.13641,0.04905]],[[241.5,251.49999],[-0.14029,0.03651],[0.48388,-0.12594]],[[243,251.49999],[-0.5,0],[1.5,0]],[[247.5,251.49999],[-1.5,0],[1.93678,0]],[[252.79057,252.62828],[-1.84659,-0.31067],[1.98856,0.33455]],[[259.5,252.49999],[-2.06243,0],[3.37543,0]],[[270,252.49999],[-3.3343,0.49013],[1.42908,-0.21007]],[[274.32926,251.25755],[-1.39354,0.47828],[0.05697,-0.31972]],[[274.48418,250.30364],[-0.03017,0.31093],[-0.00872,-0.18994]],[[274.47117,249.73807],[0.00058,0.18405],[-0.08857,-0.46829]],[[274.50001,248.49998],[-0.35855,0.21513],[0,-0.75]],[[274.50001,246.99998],[0,0],[0,-1.38071]],[[277.00001,244.49998],[-1.38071,0],[1.38071,0]],[[279.50001,246.99998],[0,-1.38071],[0,0]],[[279.50001,248.49998],[0,0],[0.75396,0.45238]],[[279.53298,251.1191],[0.14909,-0.96367],[0.89263,0.15663]],[[283.79058,252.62826],[-0.3989,-0.06711],[6.19412,1.04208]],[[302.50001,254.49997],[-6.40816,0],[1.83902,0]],[[307.23225,251.23221],[-1.28576,1.61437],[0.23368,-0.2934]],[[308.91989,248.61322],[-0.18787,0.02831],[3.99473,-0.60183]],[[319.79059,251.62826],[-3.8308,-0.64448],[4.21658,0.70938]],[[332.50002,252.49997],[-4.37941,0],[2.89685,0]],[[343.00002,252.49997],[-2.69771,0.9701],[0.70832,-0.25472]],[[344.61327,250.91984],[-0.67375,0.33566],[1.54624,-0.77033]],[[349.23226,248.2322],[-0.67656,1.85009],[0.08925,-0.24408]],[[348.50002,248.49996],[0.13277,0.22342],[-0.78899,-1.32774]],[[350.23226,244.2322],[-0.28006,0.44748],[0,0]],[[350.93446,243.53],[0,0],[0.16812,-0.2118]],[[351.61327,242.91984],[-0.28874,0.1925],[2.08013,-1.38675]],[[355.08015,243.61322],[0,0],[1.42376,2.13564]],[[358.37173,250.2094],[-1.2533,-2.12992],[1.10412,1.8764]],[[366.29059,252.12826],[-1.90443,-0.56687],[2.05653,0.61214]],[[375.20945,251.62826],[-1.74548,1.74547],[0.25554,-0.25555]],[[374.12831,251.7094],[0.36038,-0.02704],[0.64981,-1.94943]],[[377.23226,247.23221],[-0.96814,1.64529],[0.87599,-1.48869]],[[379.23226,243.23221],[-1.54447,1.76586],[0.7042,-0.80514]],[[382.23226,240.23221],[-0.36231,0.99077],[0.08925,-0.24408]],[[381.50002,240.49997],[0.13277,0.22342],[-0.81342,-1.36885]],[[381.50002,232.99997],[0,1.644],[0,-2.14479]],[[381.12831,226.29054],[0.77842,1.97298],[-0.21615,-0.54786]],[[380.23226,224.76773],[0.58798,0.03385],[-0.72526,-0.72527]],[[377.45112,223.45024],[0.98874,0.31491],[-0.26758,0.04972]],[377.00003,223.49996]],&quot;closed&quot;:true,&quot;strokeWidth&quot;:null,&quot;strokeCap&quot;:null}]}" fill="#70da36" stroke="none" stroke-width="NaN" stroke-linecap="none"/><path d="M348,301.5c-11.95324,7.44702 -38.99384,3.5 -113,3.5c-74.00616,0 -100.73283,6.13968 -111,-3.5c-9.02529,-8.4737 -22.19644,-28.00421 -16.95084,-43.9531c1.31318,-3.99261 6.32316,-1.96864 10.27173,-3.40882c2.8662,-1.0454 4.6991,-4.95397 4.6991,-4.95397c0,0 10.67948,7.42257 16.87484,7.05299c8.2377,-0.49142 20.10807,-9.25919 20.10807,-9.25919c0,0 11.04181,9.61383 18.10913,10.00671c8.58655,0.47733 22.00197,-7.77689 22.00197,-7.77689c0,0 10.9111,8.23436 17.89476,8.38436c7.41157,0.15919 18.99124,-7.59209 18.99124,-7.59209c0,0 15.21117,7.54087 24.94709,7.247c8.23693,-0.24863 21.10611,-8.63708 21.10611,-8.63708c0,0 9.18745,8.40912 15.06788,8.67097c8.46035,0.37674 21.67859,-7.03466 21.67859,-7.03466c0,0 11.05564,8.51243 18.13182,8.20036c8.28517,-0.36539 21.22971,-9.93627 21.22971,-9.93627c0,0 2.60158,4.13852 5.07842,6.20208c2.07794,1.73121 5.2711,0.92172 6.02233,3.5199c4.68381,16.19928 -0.26194,30.18444 -21.26194,43.2677z" fill="#ecab7b" stroke="#000000" stroke-width="5" stroke-linecap="butt"/><path d="M169,142.5c0,4.14214 -1.34315,7.5 -3,7.5c-1.65685,0 -3,-3.35786 -3,-7.5c0,-4.14214 1.34315,-7.5 3,-7.5c1.65685,0 3,3.35786 3,7.5z" fill="#eddbcd" stroke="#000000" stroke-width="2.5" stroke-linecap="butt"/><path d="M197.5,98c1.38071,0 2.5,3.13401 2.5,7c0,3.86599 -1.11929,7 -2.5,7c-1.38071,0 -2.5,-3.13401 -2.5,-7c0,-3.86599 1.11929,-7 2.5,-7z" fill="#eddbcd" stroke="#000000" stroke-width="2.5" stroke-linecap="butt"/><path d="M214.5,148c1.38071,0 2.5,2.91015 2.5,6.5c0,3.58985 -1.11929,6.5 -2.5,6.5c-1.38071,0 -2.5,-2.91015 -2.5,-6.5c0,-3.58985 1.11929,-6.5 2.5,-6.5z" fill="#eddbcd" stroke="#000000" stroke-width="2.5" stroke-linecap="butt"/><path d="M239,117.5c0,5.24671 -1.567,9.5 -3.5,9.5c-1.933,0 -3.5,-4.25329 -3.5,-9.5c0,-5.24671 1.567,-9.5 3.5,-9.5c1.933,0 3.5,4.25329 3.5,9.5z" fill="#eddbcd" stroke="#000000" stroke-width="2.5" stroke-linecap="butt"/><path d="M291,105c0,4.97056 -1.567,9 -3.5,9c-1.933,0 -3.5,-4.02944 -3.5,-9c0,-4.97056 1.567,-9 3.5,-9c1.933,0 3.5,4.02944 3.5,9z" fill="#eddbcd" stroke="#000000" stroke-width="2.5" stroke-linecap="butt"/><path d="M270,147c0,4.41828 -1.34315,8 -3,8c-1.65685,0 -3,-3.58172 -3,-8c0,-4.41828 1.34315,-8 3,-8c1.65685,0 3,3.58172 3,8z" fill="#eddbcd" stroke="#000000" stroke-width="2.5" stroke-linecap="butt"/><path d="M319,147c0,4.41828 -1.34315,8 -3,8c-1.65685,0 -3,-3.58172 -3,-8c0,-4.41828 1.34315,-8 3,-8c1.65685,0 3,3.58172 3,8z" fill="#eddbcd" stroke="#000000" stroke-width="2.5" stroke-linecap="butt"/></g></g></g></svg>