<svg version="1.1" xmlns="http://www.w3.org/2000/svg" xmlns:xlink="http://www.w3.org/1999/xlink" width="217.70894" height="316.67431"><g transform="translate(-136.40269,-34.47273)"><g data-paper-data="{&quot;isPaintingLayer&quot;:true}" fill="none" fill-rule="nonzero" stroke="#000000" stroke-width="none" stroke-linecap="none" stroke-linejoin="miter" stroke-miterlimit="10" stroke-dasharray="" stroke-dashoffset="0" font-family="none" font-weight="none" font-size="none" text-anchor="none" style="mix-blend-mode: normal"><g data-paper-data="{&quot;origPos&quot;:null}"><path d="M194.72806,227.79957l2.23411,3.73744l13.19371,-7.00203l6.61772,15.79505l7.39085,-8.88944l1.78657,13.33948l-24.3419,61.83878c0,0 12.53001,7.88489 13.76972,16.35474c1.40716,9.61398 -6.65674,21.70961 -15.52785,25.67346c-9.49867,4.24426 -32.42176,-11.82767 -32.42176,-11.82767l7.9068,-8.93183l-8.33521,7.69144c0,0 -13.43031,1.75788 -19.4794,-1.77107c-5.60677,-3.2709 -7.78544,-10.72324 -8.61873,-17.16066c-0.67646,-5.22588 1.58139,-13.50472 5.94235,-16.46267c5.49504,-3.72718 17.35444,-1.69788 17.35444,-1.69788z" data-paper-data="{&quot;origPos&quot;:null}" fill="#ffffff" stroke-width="5" stroke-linecap="butt"/><path d="M197.23027,295.9845l-5.0044,-7.5066" fill="none" stroke-width="2.5" stroke-linecap="round"/><path d="M194.72807,300.9889l-3.12775,-4.37885" fill="none" stroke-width="2.5" stroke-linecap="round"/><path d="M205.36242,325.38534l-1.87665,-3.7533" fill="none" stroke-width="2.5" stroke-linecap="round"/><path d="M204.73687,331.64084l-5.62995,-10.0088" fill="none" stroke-width="2.5" stroke-linecap="round"/><path d="M197.23027,329.13864l6.2555,7.5066" fill="none" stroke-width="2.5" stroke-linecap="round"/><path d="M192.85142,331.01529l5.62995,8.7577" fill="none" stroke-width="2.5" stroke-linecap="round"/><path d="M187.22147,332.89194l3.7533,6.2555" fill="none" stroke-width="2.5" stroke-linecap="round"/><path d="M166.57833,322.88314l-1.2511,-4.37885" fill="none" stroke-width="2.5" stroke-linecap="round"/><path d="M163.45058,327.26199l-3.12775,-8.7577" fill="none" stroke-width="2.5" stroke-linecap="round"/><path d="M154.69288,321.63204l3.12775,7.5066" fill="none" stroke-width="2.5" stroke-linecap="round"/><path d="M184.92778,188.38993c0,0 -1.62758,-27.43281 -2.12902,-41.32707c-0.97467,-27.00629 8.56912,-62.07109 8.56912,-62.07109c12.89765,-23.68122 29.01419,-37.91532 54.80202,-45.798c16.93002,-5.17507 46.7695,0.31528 46.7695,0.31528c30.17799,11.67693 46.26967,23.22226 58.67223,67.57276c4.42592,15.8267 -1.95569,40.26924 -12.79856,55.86907c-23.29363,33.51298 -70.15906,63.62261 -70.15906,63.62261l-24.50749,26.03954l-2.55764,-15.96791l-13.53393,7.17397l-3.44121,-14.03304l-9.33214,6.50155l-4.55495,-13.36434l-11.76215,5.82772l-5.47349,-15.06597l-13.3861,9.60906l4.8229,-34.90418z" data-paper-data="{&quot;origPos&quot;:null}" fill="#ba8661" stroke-width="5" stroke-linecap="butt"/><path d="M227.88222,75.16539l5.0044,4.37885" fill="none" stroke-width="2.5" stroke-linecap="round"/><path d="M221.62672,76.41649l8.13215,9.38325" fill="none" stroke-width="2.5" stroke-linecap="round"/><path d="M230.38442,104.56623l-15.63875,-23.7709" fill="none" stroke-width="2.5" stroke-linecap="round"/><path d="M224.12892,107.69398l-14.38765,-19.39205" fill="none" stroke-width="2.5" stroke-linecap="round"/><path d="M205.36242,95.80854l9.38325,13.13655" fill="none" stroke-width="2.5" stroke-linecap="round"/><path d="M207.23907,110.82173l-3.12775,-5.62995" fill="none" stroke-width="2.5" stroke-linecap="round"/><path d="M233.51217,139.59703l4.37885,3.12775" fill="none" stroke-width="2.5" stroke-linecap="round"/><path d="M226.63112,141.47368l12.511,11.88545" fill="none" stroke-width="2.5" stroke-linecap="round"/><path d="M219.75007,145.22698l13.7621,13.7621" fill="none" stroke-width="2.5" stroke-linecap="round"/><path d="M195.35362,152.73357l3.7533,4.37885" fill="none" stroke-width="2.5" stroke-linecap="round"/><path d="M196.60472,163.36792l5.0044,5.0044" fill="none" stroke-width="2.5" stroke-linecap="round"/><path d="M203.48577,179.00667l-7.5066,-9.38325" fill="none" stroke-width="2.5" stroke-linecap="round"/><path d="M193.47697,178.38112l11.88545,11.88545" fill="none" stroke-width="2.5" stroke-linecap="round"/><path d="M194.72807,187.13882l6.88105,8.7577" fill="none" stroke-width="2.5" stroke-linecap="round"/><path d="M322.9658,85.17419l6.88105,6.88105" fill="none" stroke-width="2.5" stroke-linecap="round"/><path d="M319.2125,75.16539l-4.37885,-0.62555" fill="none" stroke-width="2.5" stroke-linecap="round"/><path d="M333.60015,102.06403l-10.0088,-9.38325" fill="none" stroke-width="2.5" stroke-linecap="round"/><path d="M324.2169,102.68958l11.2599,10.0088" fill="none" stroke-width="2.5" stroke-linecap="round"/><path d="M321.08915,109.57063l12.511,10.63435" fill="none" stroke-width="2.5" stroke-linecap="round"/><path d="M322.34025,119.57943l13.7621,10.63435" fill="none" stroke-width="2.5" stroke-linecap="round"/><path d="M334.85125,140.84813l-13.7621,-11.2599" fill="none" stroke-width="2.5" stroke-linecap="round"/><path d="M317.33585,133.96708l15.0132,15.63875" fill="none" stroke-width="2.5" stroke-linecap="round"/><path d="M325.468,153.98467l-13.13655,-12.511" fill="none" stroke-width="2.5" stroke-linecap="round"/><path d="M323.59135,163.36792l-16.2643,-13.7621" fill="none" stroke-width="2.5" stroke-linecap="round"/><path d="M301.6971,155.23577l15.63875,16.2643" fill="none" stroke-width="2.5" stroke-linecap="round"/><path d="M296.06715,162.74237l15.0132,15.63875" fill="none" stroke-width="2.5" stroke-linecap="round"/><path d="M304.82485,184.63662l-13.7621,-13.7621" fill="none" stroke-width="2.5" stroke-linecap="round"/><path d="M297.31825,190.26657l-12.511,-15.0132" fill="none" stroke-width="2.5" stroke-linecap="round"/><path d="M287.93501,192.14322l-8.7577,-13.13655" fill="none" stroke-width="2.5" stroke-linecap="round"/><path d="M271.67071,184.63662l9.38325,15.0132" fill="none" stroke-width="2.5" stroke-linecap="round"/><path d="M269.79406,194.64542l6.88105,8.7577" fill="none" stroke-width="2.5" stroke-linecap="round"/><path d="M262.91301,197.77317l8.7577,12.511" fill="none" stroke-width="2.5" stroke-linecap="round"/><path d="M266.66631,216.53966l-8.7577,-10.63435" fill="none" stroke-width="2.5" stroke-linecap="round"/><path d="M252.90421,211.53526l5.62995,8.13215" fill="none" stroke-width="2.5" stroke-linecap="round"/><path d="M249.15091,219.04186l6.2555,8.7577" fill="none" stroke-width="2.5" stroke-linecap="round"/><path d="M246.64871,226.54846l5.0044,5.0044" fill="none" stroke-width="2.5" stroke-linecap="round"/><path d="M213.49457,240.93611l3.7533,5.62995" fill="none" stroke-width="2.5" stroke-linecap="round"/><path d="M215.37122,251.57046l-3.12775,-4.37885" fill="none" stroke-width="2.5" stroke-linecap="round"/><path d="M213.49457,259.07706l-4.37885,-6.2555" fill="none" stroke-width="2.5" stroke-linecap="round"/><path d="M210.36682,264.08145l-4.37885,-5.62995" fill="none" stroke-width="2.5" stroke-linecap="round"/><path d="M207.86462,269.7114l-4.37885,-6.2555" fill="none" stroke-width="2.5" stroke-linecap="round"/><path d="M200.35802,270.33695l4.37885,5.62995" fill="none" stroke-width="2.5" stroke-linecap="round"/><path d="M198.48137,276.59245l3.7533,6.2555" fill="none" stroke-width="2.5" stroke-linecap="round"/><path d="M198.48137,289.729l-2.5022,-5.62995" fill="none" stroke-width="2.5" stroke-linecap="round"/></g></g></g></svg>