<svg version="1.1" xmlns="http://www.w3.org/2000/svg" xmlns:xlink="http://www.w3.org/1999/xlink" width="314.38737" height="244.40599" viewBox="0,0,314.38737,244.40599"><g transform="translate(-89.87118,-60.11662)"><g data-paper-data="{&quot;isPaintingLayer&quot;:true}" fill="none" fill-rule="nonzero" stroke="none" stroke-width="none" stroke-linecap="butt" stroke-linejoin="miter" stroke-miterlimit="10" stroke-dasharray="" stroke-dashoffset="0" font-family="none" font-weight="none" font-size="none" text-anchor="none" style="mix-blend-mode: normal"><g data-paper-data="{&quot;origPos&quot;:null}"><path d="M262.47283,212.89834l-3.87248,-24.23795c0,0 30.92039,-23.43783 48.79086,-40.35939c28.9325,-27.3962 70.13594,-71.19935 70.13594,-71.19935l1.87248,36.23795c0,0 -34.95338,29.10422 -57.32533,49.65255c0,0 -13.09872,18.39075 -24.50989,27.88315c-11.91612,9.91245 -35.09159,22.02304 -35.09159,22.02304z" data-paper-data="{&quot;origRot&quot;:0,&quot;origPos&quot;:null}" fill="#fea576" stroke="#3b2d2d" stroke-width="10"/><path d="M258.24504,182.35571c0,0 -78.16172,6.12391 -117.30833,3.64302c-19.89899,-1.26109 -33.9887,-13.23138 -33.9887,-13.23138c0,0 37.78779,-33.7757 63.254,-52.83367c29.87578,-22.35792 78.55296,-53.28939 78.55296,-53.28939c0,0 52.63715,-2.49253 86.32761,-1.52767c15.20832,0.43555 38.96942,5.11604 38.96942,5.11604c0,0 -14.4425,19.82402 -26.8867,31.87236c-32.75096,31.70913 -88.92026,80.2507 -88.92026,80.2507z" data-paper-data="{&quot;origRot&quot;:0,&quot;origPos&quot;:null}" fill="#fea576" stroke="#3b2d2d" stroke-width="10"/><path d="M122.17801,218.56803c4.01691,-0.3351 7.76199,-1.06803 11.822,-1.06803c5.52821,0 10.51624,-0.5434 16,-1c2.3242,-0.19352 3.79848,0.46338 5.91886,-0.24341c2.29408,-0.74563 4.6807,-1.45758 7.08114,-1.75659c3.51998,-0.43845 7.3226,0.58523 10.78732,0.14928c1.76537,-0.22213 3.45004,-0.90644 5.21268,-1.14928c6.09096,-0.83918 12.84523,0 19,0c12,0 24,0 36,0c5,0 10,0 15,0c1.66666,0 3.33334,0 5,0c0.66666,0 1.33334,0 2,0c0.33198,0 0.96007,-0.20701 1.29446,-0.2087c0.68254,-0.54823 1.37786,-1.08088 2.1244,-1.53472c1.98302,-1.2055 4.38924,-1.1379 6.30764,-2.41683c1.72741,-0.87845 2.99907,-2.55379 4.69236,-3.58317c0.45036,-0.27378 0.98307,-0.60278 1.5,-0.5c0.27501,0.05468 -0.70158,0.84022 -0.45439,0.70788c1.49634,-0.80114 2.50405,-2.3262 3.95439,-3.20788c2.94298,-1.78907 6.73932,-2.66846 9.80764,-4.41683c3.5872,-2.04404 6.81811,-4.45223 10.53743,-6.31189c0,0 4.47213,-2.23607 6.7082,2.23606c0.89775,1.7955 0.7142,3.23057 0.17289,4.30521l1.09839,0.34973c1.23323,3.69967 0.55956,6.52801 1,10c0.24698,1.947 1.37767,4.13302 2,6c1.4214,4.2642 2.97032,8.63787 5.41683,12.30764c0.87845,1.72741 2.55379,2.99907 3.58317,4.69236c2.48463,4.08715 0.47196,8.83745 1,13c0.25437,2.00517 0.85789,3.79971 1.12523,5.7506c0.67781,-0.71473 1.42007,-1.53799 1.59582,-1.70499c2.34726,-2.23057 4.27332,-3.42495 7.53553,-4.46446c2.14511,-0.68355 1.9167,-0.30607 1.32328,0.14094c1.70547,-0.98807 3.5982,-1.7116 5.14119,-2.67648c3.7643,-2.35394 5.97803,-6.97804 9,-10c2.86177,-1.81465 4.77095,-7.43619 6.37528,-10.23797c0.58968,-1.02982 2.4025,-4.69167 3.62472,-4.76203c0.32506,-0.01871 -0.36156,1.24143 -0.20788,0.9544c2.01947,-3.77187 0.80328,-9.42789 -0.5,-13.33772c-1.13286,-4.61352 -0.75658,-9.34006 -0.75658,-14.08114c0,-7.83334 0,-15.66666 0,-23.5c0,-4 0,-8 0,-12c0,-1.5 0,-3 0,-4.5c0,-0.38985 -0.28546,-1.18803 -0.18867,-1.43942c-1.00007,-1.45451 -2.21513,-3.25851 -1.81133,-5.06058c1.11402,-4.97158 3.80251,-9.03796 8.91886,-10.74341c-0.15146,0.23596 -0.70158,0.84022 -0.45439,0.70788c2.12466,-1.13755 3.82903,-3.91584 5.95439,-5.20788c0.30921,-0.18797 0.91951,-0.60128 1.25893,-0.67178c0.8352,-1.17468 1.72505,-2.3122 2.74107,-3.32821c0.18518,-0.18518 0.56642,-0.43955 0.89832,-0.58414c0.34785,-0.75455 0.7164,-1.49918 1.14729,-2.20798c1.48159,-2.43717 3.95056,-4.95056 6,-7c0,0 0.05938,-0.05938 0.17044,-0.15505c0.73227,-0.71192 1.85133,-1.44938 3.32519,-1.41283c0.93651,-0.03793 1.98658,0.22943 3.05258,1.09496c0.57804,0.40147 1.00399,0.84261 1.31205,1.29984c6.19012,2.61313 12.38777,7.17827 14.67528,13.70862c0.27549,0.78648 0.58925,1.91074 0,2.5c-0.42275,0.42275 -0.86834,-0.98993 -1.46447,-1.03554c-0.47003,-0.03596 0.66667,0.66666 1,1c0.33333,0.33334 0.66667,0.66666 1,1c1,1 2,2 3,3c0.82149,1.51184 1.81403,2.9426 2.46447,4.53554c0.58173,1.42469 0,4.44082 0,6c0,4.55615 0.65176,9.80738 -0.52787,14.23607c-0.54419,2.04306 -2.13827,3.58652 -2.47213,5.76393c-0.60073,3.91788 -0.70682,6.59398 -2.52787,10.23607c-0.89954,1.30806 -1.66862,2.71617 -2.69863,3.92418c-0.3899,0.45727 -0.97618,1.29449 -1.5,1c-0.01812,-0.01019 -0.03392,-0.02113 -0.04755,-0.03278c-0.33493,0.89006 -0.64258,1.79451 -1.0657,2.64604c-0.36014,0.72476 -2.07614,2.73622 -2.16025,3.2265c-0.32884,1.91675 -0.2493,3.92055 -0.83975,5.7735c-1.11661,3.50414 -6.93696,9.60476 -9.16025,11.2265c-0.3761,0.27434 -0.91031,-0.2997 -1.37395,-0.26221c-0.11671,0.68847 -0.25418,1.37161 -0.4658,2.03572c-0.18245,0.57256 -0.41021,1.38486 -1,1.5c-0.07941,0.0155 -0.12569,-0.0329 -0.15018,-0.11922c0.01342,0.11877 0.01469,0.23523 -0.01007,0.34572c-0.38222,1.70576 -0.80365,3.4172 -1.46447,5.03554c-0.3564,0.87285 -1.33333,1.33334 -2,2c-1.6354,1.63539 -3.20524,3.54406 -5,5c-1.34945,1.0947 -2.75012,3.04671 -4.45439,2.70788c-0.27501,-0.05468 0.70158,-0.84022 0.45439,-0.70788c-2.98316,1.59719 -4.7316,5.7316 -7,8c-1.77087,1.12292 -3.20412,4.48122 -4.37528,6.23797c-2.28537,3.42806 -5.04546,6.5565 -7.62472,9.76203c-1.86348,2.31596 -4.27341,3.31422 -6.95439,4.20788c-0.46947,0.15649 -1.19478,0.88617 -1.45528,0.57447c-1.85152,2.3807 -3.62719,3.25452 -5.59033,5.21765c-2.45241,2.45242 -4.7992,4.64008 -7.95439,6.20788c-1.41552,0.70337 -3.51859,0.76303 -4.80764,1.41683c-2.66071,1.34951 -4.77567,3.48497 -7.56082,4.69046c-3.28753,1.42293 -7.24899,1.92954 -10.98035,2.08678c-0.19158,0.29008 -0.38325,0.57999 -0.6968,0.59804c-0.16172,0.00931 -0.07302,-0.29794 0.03802,-0.57371c-0.00838,0.00027 -0.01676,0.00054 -0.02514,0.0008c-0.85505,1.75006 -1.26723,3.62948 -2.38816,5.31088c-0.81417,1.13353 -1.2314,3.18181 -2.62472,3.26203c-0.32506,0.01871 0.36156,-1.24143 0.20788,-0.95439c-2.55911,4.7798 -2.11754,6.12167 -7.74342,8.41886c-0.92579,0.37802 -2,0 -3,0c-2.48622,0 -5.01822,0.139 -7.5,0c-1.54531,-0.08655 -3.11284,-0.26715 -4.58114,-0.75658c-0.03566,-0.01189 -0.07131,-0.02377 -0.10697,-0.03566c-0.20411,0.36351 -0.42078,0.71945 -0.65164,1.06574c-6.00617,8.36217 -16.12126,9.00996 -25.24139,5.96992c-1.47028,-0.49009 -3.10775,-0.91191 -4.57442,-1.59177c-0.23037,0.64427 -0.48843,1.27794 -0.8089,1.88389c-0.22039,0.41671 -0.52937,0.97291 -1,1c-0.32505,0.01871 0.36156,-1.24143 0.20788,-0.95439c-2.11955,3.95882 -1.1316,5.1316 -5.16227,9.16228c-1.11967,1.11967 -3.01885,0.99857 -4.58114,1.25658c-3.06882,0.50682 -7.56318,0.24184 -10.58114,-0.25658c-0.9906,-0.1636 -1.91484,-0.74342 -2.91886,-0.74342c-0.59489,-0.17301 -1.19734,-0.32433 -1.79931,-0.47703c-0.35726,0.42156 -0.72908,0.82998 -1.11955,1.22044c-1.20316,1.20315 -4.43904,1.34855 -6.08114,1.25658c-4.65972,-0.26099 -10.29339,-1.84579 -14.58114,-3.75658c-0.82154,-0.36611 -1.51682,-0.69363 -2.12614,-1.0241c-4.61103,3.89737 -10.53938,2.78069 -16.29272,2.78069c-4.04613,0 -8.91939,0.65168 -12.03554,-2.46447c2.43972,0.53141 -0.19328,-0.01085 -0.51451,-0.24806c-0.95495,0.32301 -1.89675,0.68931 -2.86881,0.95594c-2.84447,0.78022 -4.72573,0.98498 -7.66228,0.5c-3.43865,-0.5679 -7.35256,-1.9726 -10.46925,-4.08696c-0.21071,0.17543 -0.43576,0.34356 -0.67611,0.50379c-6.09503,2.62392 -13.88692,2.97541 -19.80904,-0.62472c-1.86925,-1.13634 -2.72263,-3.38577 -4,-5c-1.19401,-1.50889 -2.42483,-3.05749 -3.71252,-4.53548c-7.3798,0.00266 -13.30282,0.09813 -19.49536,-4.41891c-1.27928,-0.93315 -0.99857,-3.01885 -1.25659,-4.58114c-0.57446,-3.47836 -0.31995,-8.85154 0.75659,-12.08114c0.62256,-1.86766 1.17303,-3.57276 2.05721,-5.29208c-1.33006,-0.83098 -2.57417,-1.85269 -3.34933,-3.09125c-3.78247,-6.04363 -2.89566,-13.05333 -0.70788,-19.61667c0.11053,-0.33159 0.60546,-2.21148 0.99699,-2.84868c-0.27892,-1.01621 -0.58187,-2.03049 -0.75357,-3.07018c-0.30984,-1.87607 0,-4.09496 0,-6c0,-6.94612 6.16813,-12.65984 12.41886,-14.74341c0,0 4.74341,-1.58114 6.32456,3.16227c0.51072,1.53217 0.36158,2.73441 -0.07444,3.65999c3.84861,0.11978 7.75397,0.30245 11.50903,-0.01082zM286.23607,208.97214c-2.46028,1.23013 -5.27332,1.99616 -7.65493,3.27128c-0.28704,0.15368 0.97311,-0.53293 0.95439,-0.20788c-0.11115,1.93061 -4.50579,2.4323 -5.95439,3.20788c-0.28704,0.15368 0.97311,-0.53293 0.95439,-0.20788c-0.08022,1.39332 -2.1285,1.81054 -3.26203,2.62471c-2.73559,1.82372 -5.88954,2.08253 -8.69236,3.58317c-0.28704,0.15368 0.97311,-0.53293 0.95439,-0.20788c-0.12491,2.1695 -3.91502,1.98931 -6.03553,2.46446c-2.10613,0.47194 -4.83278,0 -7,0c-5.5,0 -11,0 -16.5,0c-12,0 -24,0 -36,0c-6.11418,0 -12.96415,-0.92547 -19,0c-2.17512,0.33351 -3.60092,0.93129 -6,1c-4.87043,0.13949 -9.27394,-0.36862 -13.91886,1.24341c-3.00099,1.00033 -6.00177,0.49969 -9.08114,0.75659c-5.42309,0.45242 -10.51783,1 -16,1c-3.5557,0 -6.67433,0.64024 -10.178,0.93197c-5.70172,0.47475 -11.59658,0.06803 -17.32199,0.06803c-1.5,0 -3,0 -4.5,0l0.63263,-2.04019c0,0 -0.24478,0.03122 -0.6325,0.02542c-0.00008,0.00499 -0.00013,0.00991 -0.00013,0.01477c0,1.5 0,3 0,4.5c0,1.00402 0.74341,1.91484 0.74341,2.91886c0,3.11554 -0.60048,4.96371 -1.5,7.66228c-1.04296,3.1289 -1.24341,4.36176 -1.24341,7.41886c0,0.81899 0,1.63798 0,2.45698c0.83438,0.76749 2.07748,2.26225 2.53553,2.50749c0.24719,0.13234 -0.7294,-0.6532 -0.45439,-0.70788c2.72885,-0.54254 3.7951,4.1982 4.91886,6.74341c1.17165,2.65368 -2.38403,5.01754 -3.46447,7.03553c-0.13235,0.24719 0.6532,-0.7294 0.70788,-0.45439c0.20555,1.03386 -0.66666,2 -1,3c-0.65104,1.95313 -0.2749,4.60947 -0.24523,7.12056c0.69913,0.16363 1.39057,0.36496 2.08295,0.55488c1.88618,0.51737 4.39109,0.37775 6.83968,0.28972c3.37705,-2.8195 6.61471,0.41817 6.61471,0.41817c2.17304,2.17304 4.09919,4.63765 6,7c1.13312,1.40825 2.25868,4.0677 4,5c0.24719,0.13234 -0.7294,-0.65321 -0.45439,-0.70788c0.51693,-0.10278 0.98055,0.41089 1.5,0.5c0.85667,0.14697 3.69939,-0.18232 5.41879,-0.24612c0.00004,-0.00352 0.00007,-0.00701 0.00007,-0.01046v-3c0,-2.76142 2.23857,-5 5,-5c2.24919,0 4.15152,1.48512 4.77988,3.52824l0.46354,1.39062c0.24713,0.03264 0.31669,0.26601 0.34769,0.55209c0.86172,0.14967 2.17133,2.57959 2.94443,2.99352c0.24719,0.13234 -0.72941,-0.65321 -0.4544,-0.70788c1.9678,-0.39123 5.47826,2.15316 7.5,2.5c1.25784,0.21579 3.82367,-2 5.83772,-2c4.22376,0 5.44204,0.51397 8.21303,2.53839c0.30666,-0.03609 1.00983,0.20502 1.36811,0.20502c0.5,0 1,0 1.5,0c2.16666,0 4.33334,0 6.5,0c1.66666,0 3.33334,0 5,0c0.23892,0 0.47786,0 0.71678,0c0.25876,-0.18069 0.59015,-0.378 0.74768,-0.53553c0.17851,-0.17851 0.35703,-0.35703 0.53554,-0.53554v-0.92893c0,-2.76142 2.23857,-5 5,-5c2.24919,0 4.15152,1.48512 4.77988,3.52824l0.46354,1.39062c0.24722,0.03265 0.31674,0.26617 0.34772,0.5524c0.42476,0.08036 0.54568,0.77974 0.9444,0.99321c0.24719,0.13234 -0.72941,-0.65321 -0.4544,-0.70788c0.99332,-0.19749 3.5029,1.21576 4.5,1.5c1.81908,0.51857 5.73758,1.95704 6.91886,1.74342c0.07586,-0.01372 0.15301,-0.02356 0.23082,-0.03135c0.13787,-0.26832 0.33204,-0.50117 0.52577,-0.54979c2.87222,-0.72089 5.86974,-0.94684 8.83467,-0.9548c-0.19406,-0.15993 -0.38891,-0.31849 -0.59125,-0.46406c2.17192,0 4.00698,0.90074 6.08114,1.25658c0.96264,0.16515 1.94215,-0.25658 2.91886,-0.25658c0.9432,0 2.43438,0.07804 3.47397,-0.02614c0.11918,-0.20447 0.23236,-0.40425 0.28261,-0.555c0.33334,-1 0.45245,-2.09929 1,-3c0.88168,-1.45035 2.76096,-2.31698 3.20788,-3.95439c0.07695,-0.28195 -0.7612,0.61009 -0.81518,0.32286c-0.09878,-0.52567 0.40847,-1.84502 0.9215,-3.00193l-0.04292,-0.02146l1.95156,-3.90312c0.80172,-1.69123 2.52456,-2.86082 4.52058,-2.86082c2.24919,0 4.15152,1.48512 4.77988,3.52824l0.46354,1.39062c0.22172,0.07932 0.29547,0.29446 0.33139,0.54964c0.43806,0.06529 0.55695,0.77978 0.96073,0.99597c0.24719,0.13234 -0.72941,-0.65321 -0.4544,-0.70788c1.9678,-0.39123 5.47826,2.15316 7.5,2.5c2.2002,0.37746 6.40777,-0.699 8.83772,-2c0.28704,-0.15368 -0.97311,0.53294 -0.95439,0.20788c0.04246,-0.73754 1.04041,-1.07946 1.37528,-1.73797c0.33333,-0.5 0.72818,-0.96407 1,-1.5c0.27971,-0.55148 -0.13624,-1.5311 0.41683,-1.80764c2.46417,-1.23208 5.14075,-2.03993 7.82456,-2.66228c1.02684,-0.23811 2,0.66667 3,1c0.92623,0.30874 1.94253,0.24342 2.91886,0.24342c2,0 4,0 6,0c0.27051,0 0.54103,0 0.81155,0c0.25925,-0.16449 0.5543,-0.35135 0.65292,-0.53553c0.13234,-0.24719 -0.65321,0.7294 -0.70788,0.45439c-0.46182,-2.32288 3.11556,-4.28963 4.08317,-6.19236c1.24286,-1.86428 1.93422,-3.7589 3.21248,-5.57658c0.42698,-3.3313 3.35673,-3.98843 4.49598,-4.11807l0.0163,-0.01286c0,0 0.07892,-0.0069 0.21776,-0.00903c0.13851,-0.00997 0.21773,-0.00997 0.21773,-0.00997c3.53066,0 7.46258,-0.2874 10.88013,-1.50104c-1.32508,-1.86263 -0.88013,-6.07399 -0.88013,-7.99896c0,-2.15609 -0.87458,-3.77193 -1,-6.5c-0.11836,-2.57465 0.43545,-5.46179 0,-8c-0.09028,-0.52625 -0.49139,-0.94814 -0.74342,-1.41886c-0.15368,-0.28704 0.53294,0.97311 0.20788,0.9544c-1.39332,-0.08022 -1.81055,-2.1285 -2.62472,-3.26203c-1.20604,-1.80906 -1.62464,-3.80251 -2.58317,-5.69236c-2.2433,-4.42291 -5.23262,-9.84641 -6,-15c-0.42424,-2.84912 -0.1674,-5.51123 -0.53713,-8.00969c-2.78934,1.68442 -5.53847,3.42824 -8.48338,4.90069zM379.16025,126.2735c-0.7962,0.98953 -2.02523,1.64234 -2.62472,2.76204c-0.13234,0.24719 0.65321,-0.72941 0.70788,-0.4544c0.10278,0.51693 -0.12732,1.12732 -0.5,1.5c-1.00925,1.00925 -2.13838,1.894 -3.30474,2.72437c-0.02723,0.35011 -0.43145,1.01182 -0.69526,1.27563c-1.3974,1.3974 -3.02463,2.55613 -4.66228,3.66227c-0.17071,0.11531 -0.36616,0.17886 -0.56867,0.22835c0.01638,0.0142 0.02472,0.03503 0.02306,0.06377c-0.10044,1.74454 -5.83578,4.40203 -6.45439,4.70788c-0.23856,0.07952 -0.48518,0.14035 -0.72831,0.20925c0.11163,-0.01654 0.1874,0.00134 0.1827,0.08288c-0.02654,0.46105 -0.64089,0.65857 -0.97928,0.97982c0.83337,2.05266 1.44374,4.27042 1.44374,6.48465c0,5.5 0,11 0,16.5c0,7.83334 0,15.66666 0,23.5c0,2.66666 0,5.33334 0,8c0,0.37585 -0.3276,3.1092 0.24342,2.91886c0.92431,2.77294 1.89878,6.75006 2.12228,10.6342c0.03503,-0.02859 0.06819,-0.05802 0.09877,-0.08859c1.33333,-1.33334 2.66667,-2.66666 4,-4c0.09636,-0.09636 0.19272,-0.19272 0.28909,-0.28908c0.0068,-0.35308 0.15605,-0.8917 0.24645,-1.17539c0.65906,-2.06824 1.16619,-3.21522 2.00008,-4.53109c0.01797,-3.43564 3.01022,-6.64939 6.41878,-7.21232c0.32624,-0.05388 0.6544,-0.09367 0.98363,-0.12476c0.71342,-1.37303 1.58204,-2.62251 2.43726,-3.90533c0.38336,-0.57504 0.75763,-1.15632 1.13849,-1.73307c-0.44865,-0.15065 -0.05845,-1.00774 0.02177,-1.49343c0.5956,-3.60634 2.24469,-5.62869 3.83975,-8.7735c0.27971,-0.55148 0.03603,-1.32044 0.41683,-1.80764c1.38721,-1.7748 3.62427,-2.7726 4.96992,-4.57911c0.13993,-0.18786 -0.46575,-0.05055 -0.69863,-0.07582c1.94973,-3.89947 1.03407,-6.73199 2.62142,-10.97661c0.64895,-1.73531 1.73027,-3.28784 2.37858,-5.02339c0.10566,-0.28284 -0.35623,0.98447 -0.52787,0.73607c-0.44555,-0.64481 0,-3.68416 0,-4.5c0,-2.5 0,-5 0,-7.5c0,-0.79865 0,-1.59731 0,-2.39596c-1.42774,-1.25885 -4.03574,-3.1417 -4.53553,-4.5685c-0.6844,-1.95382 -1.11439,-3.99513 -1.46447,-6.03554c-0.01615,-0.09413 -0.03951,-0.20036 -0.06697,-0.31457c-0.16141,-0.23946 -0.33031,-0.51164 -0.46856,-0.64989c-1,-1 -2,-2 -3,-3c-0.83778,-0.83778 -1.96153,-2.444 -3,-3c-0.24719,-0.13235 0.7294,0.6532 0.45439,0.70788c-0.42416,0.08433 -1.19414,-0.15067 -1.99661,-0.4622c-0.24014,0.32446 -0.49018,0.65447 -0.762,0.99229zM359.89286,143.10202c-0.10652,0.04107 -0.21078,0.08736 -0.31171,0.14139c-0.13217,0.07076 0.0637,-0.03663 0.31171,-0.14139zM366.72074,138.17835c-0.04762,0.01929 -0.09425,0.04078 -0.1396,0.06507c-0.09909,0.05305 -0.01381,0.00597 0.1396,-0.06507zM363.41886,212.75659c0.0686,-0.03673 0.04883,-0.02546 -0.02074,0.00852c0.00003,0.00083 0.00005,0.00167 0.00008,0.0025c0.00689,-0.00367 0.01377,-0.00734 0.02065,-0.01102zM377.98874,207.50923c-0.02461,-0.44396 0.18956,-1.26122 0.01126,-1.00922c-0.19693,0.27833 -0.07444,0.64769 -0.01126,1.00922zM394.39219,180.97694c0.20376,-0.30082 0.45044,-0.63491 0.35123,-0.8958c-0.13343,-0.35088 -0.23598,0.3089 -0.35123,0.8958zM145.74342,287.91886c0.03485,0.06509 0.02649,0.05062 -0.00348,-0.01045zM196.74342,291.91886c0.03485,0.06509 0.02649,0.05062 -0.00348,-0.01045zM246.74342,282.91886c0.03485,0.06509 0.02649,0.05062 -0.00348,-0.01045z" data-paper-data="{&quot;origPos&quot;:null}" fill="#3b2d2d" stroke="none" stroke-width="0.5"/><path d="M380.42557,124.73132c0.80247,0.31153 1.57479,0.54675 1.99895,0.46242c0.27501,-0.05468 -0.70219,-0.84029 -0.455,-0.70795c1.03847,0.556 2.16617,2.16277 3.00396,3.00056c1,1 2.00437,2.00101 3.00437,3.00101c0.13826,0.13825 0.30793,0.41066 0.46934,0.65012c0.02746,0.11422 0.05102,0.2205 0.06717,0.31463c0.35008,2.0404 0.78456,4.0833 1.46896,6.03712c0.49979,1.4268 3.1163,3.31411 4.54404,4.57296c0,0.79865 0.00187,1.59859 0.00187,2.39724c0,2.5 0.0071,5.00621 0.0071,7.50621c0,0.81584 -0.44054,3.86142 0.00502,4.50623c0.17163,0.24839 0.63311,-1.01951 0.52745,-0.73667c-0.64831,1.73556 -1.72547,3.29517 -2.37442,5.03048c-1.58735,4.24462 -0.66885,7.11309 -2.61858,11.01256c0.23288,0.02527 0.83869,-0.11248 0.69876,0.07537c-1.34565,1.80651 -3.59577,2.82618 -4.98298,4.60098c-0.3808,0.4872 -0.14174,1.26015 -0.42145,1.81163c-1.59506,3.14481 -3.26432,5.17639 -3.85992,8.78273c-0.08021,0.48569 -0.47118,1.34293 -0.02253,1.49358c-0.38086,0.57675 -0.75832,1.15854 -1.14168,1.73358c-0.85521,1.28282 -1.7294,2.53268 -2.44282,3.90571c-0.32923,0.03109 -0.65926,0.07087 -0.9855,0.12475c-3.40856,0.56293 -6.40993,3.77562 -6.4279,7.21126c-0.83389,1.31588 -1.3423,2.46256 -2.00136,4.5308c-0.0904,0.28368 -0.23961,0.82232 -0.24641,1.1754c-0.09636,0.09636 -0.19298,0.19266 -0.28934,0.28902c-1.33333,1.33334 -2.66978,2.6658 -4.00311,3.99913c-0.03058,0.03058 -0.06381,0.05998 -0.09884,0.08857c-0.2235,-3.88414 -1.20463,-7.86389 -2.12895,-10.63683c-0.57101,0.19034 -0.24536,-2.544 -0.24536,-2.91985c0,-2.66666 -0.00589,-5.33704 -0.00589,-8.0037c0,-7.83334 -0.02027,-15.7118 -0.02027,-23.54513c0,-5.5 0.01653,-11.03259 0.01653,-16.53259c0,-2.21422 -0.60617,-4.43534 -1.43955,-6.488c0.33839,-0.32125 0.95459,-0.52004 0.98114,-0.98109c0.0047,-0.08154 -0.07122,-0.09932 -0.18285,-0.08278c0.24313,-0.06889 0.49075,-0.13036 0.72931,-0.20988c0.61861,-0.30585 6.36539,-2.96857 6.46582,-4.71311c0.00166,-0.02874 -0.00669,-0.04956 -0.02307,-0.06376c0.20251,-0.0495 0.39887,-0.11332 0.56958,-0.22863c1.63765,-1.10614 3.27266,-2.26649 4.67006,-3.66389c0.26381,-0.26381 0.66921,-0.92566 0.69644,-1.27576c1.16636,-0.83037 2.30012,-1.71537 3.30937,-2.72462c0.37268,-0.37268 0.60293,-0.88307 0.50016,-1.4c-0.05467,-0.27501 -0.84064,0.60159 -0.70829,0.3544c0.59949,-1.1197 1.83166,-1.77244 2.62786,-2.76197c0.27182,-0.33782 0.52268,-0.66779 0.76282,-0.99224z" data-paper-data="{&quot;noHover&quot;:false,&quot;origItem&quot;:[&quot;Path&quot;,{&quot;applyMatrix&quot;:true,&quot;segments&quot;:[[[746.3205,253.547],[0.54363,-0.67563],[-1.5924,1.97906]],[[741.07107,259.07107],[1.19897,-2.2394],[-0.26469,0.49438]],[[742.48683,258.16228],[-0.10935,-0.55002],[0.20555,1.03386]],[[741.48683,261.16228],[0.74536,-0.74536],[-2.0185,2.0185]],[[734.87735,266.61102],[2.33272,-1.66073],[-0.05446,0.70021]],[[733.48683,269.16228],[0.52762,-0.52762],[-2.7948,2.7948]],[[724.16228,276.48683],[3.2753,-2.21229],[-0.34143,0.23062]],[[723.02494,276.94354],[0.40502,-0.09899],[0.03276,0.0284]],[[723.07107,277.07107],[0.00331,-0.05747],[-0.20088,3.48908]],[[710.16228,286.48683],[1.23723,-0.6117],[-0.47712,0.15904]],[[708.70566,286.90532],[0.48627,-0.13778],[0.22326,-0.03308]],[[709.07107,287.07107],[0.00939,-0.16307],[-0.05309,0.9221]],[[707.11251,289.03071],[0.67677,-0.64249],[1.66675,4.10532]],[[710,302],[0,-4.42845],[0,11]],[[710,335],[0,-11],[0,15.66667]],[[710,382],[0,-15.66667],[0,5.33333]],[[710,398],[0,-5.33333],[0,0.7517]],[[710.48683,403.83772],[-1.14203,0.38068],[1.84863,5.54588]],[[714.7314,425.10612],[-0.44701,-7.76829],[0.07005,-0.05718]],[[714.92893,424.92893],[-0.06116,0.06116],[2.66667,-2.66667]],[[722.92893,416.92893],[-2.66667,2.66667],[0.19272,-0.19272]],[[723.5071,416.35077],[-0.19272,0.19272],[0.0136,-0.70616]],[[724,414],[-0.1808,0.56737],[1.31811,-4.13649]],[[728.00016,404.93781],[-1.66778,2.63176],[0.03593,-6.87129]],[[740.83772,390.51317],[-6.81712,1.12586],[0.65249,-0.10776]],[[742.80498,390.26365],[-0.65847,0.06219],[1.42685,-2.74605]],[[747.6795,382.453],[-1.71043,2.56564],[0.76672,-1.15007]],[[749.95647,378.98686],[-0.76172,1.15351],[-0.8973,-0.3013]],[[750,376],[-0.16042,0.97138],[1.19119,-7.21267]],[[757.6795,358.453],[-3.19011,6.28963],[0.55942,-1.10296]],[[758.51317,354.83772],[-0.7616,0.97439],[2.77442,-3.5496]],[[768.453,345.6795],[-2.6913,3.61302],[0.27986,-0.37571]],[[767.05573,345.52786],[0.46576,0.05054],[3.89947,-7.79894]],[[772.29857,323.57464],[-3.17469,8.48924],[1.2979,-3.47063]],[[777.05573,313.52786],[-1.29662,3.47111],[0.21131,-0.56568]],[[776,315],[0.34327,0.49679],[-0.8911,-1.28962]],[[776,306],[0,1.63169],[0,-5]],[[776,291],[0,5],[0,-1.59731]],[[776,286.20807],[0,1.59731],[-2.85548,-2.5177]],[[766.92893,277.07107],[0.99958,2.8536],[-1.3688,-3.90764]],[[764,265],[0.70016,4.08081],[-0.0323,-0.18826]],[[763.86606,264.37085],[0.05492,0.22843],[-0.32282,-0.47892]],[[762.92893,263.07107],[0.27651,0.27651],[-2,-2]],[[756.92893,257.07107],[2,2],[-1.67557,-1.67557]],[[750.92893,251.07107],[2.07694,1.112],[-0.49438,-0.26469]],[[751.83772,252.48683],[0.55002,-0.10935],[-0.84832,0.16866]],[[747.8445,251.56242],[1.60494,0.62306],[-0.48028,0.64891]]],&quot;closed&quot;:true}],&quot;origPos&quot;:null}" fill="#fefefe" stroke="none" stroke-width="0.5"/><path d="M295.26416,203.54905c0.36973,2.49846 0.36445,4.91401 0.78869,7.76313c0.76738,5.15359 3.25917,10.08487 5.50247,14.50777c0.95853,1.88985 1.12772,3.88629 2.33375,5.69535c0.81417,1.13353 -0.76834,3.93357 0.62498,4.01379c0.32506,0.01871 -0.36163,-1.2419 -0.20794,-0.95486c0.25203,0.47072 2.15323,1.14333 2.24351,1.66958c0.43545,2.53821 1.13196,5.17921 1.25033,7.75386c0.12542,2.72807 1.50005,5.09706 1.50005,7.25315c0,1.92497 -0.44516,5.39013 0.87992,7.25276c-3.41755,1.21365 -10.59961,3.50236 -14.13027,3.50236c0,0 -0.07923,1.25002 -0.21773,1.25999c-0.13885,0.00213 -0.46777,0.50905 -0.46777,0.50905l0.2337,-0.23714c-1.13925,0.12963 -0.81938,-1.46068 -1.24636,1.87061c-1.27826,1.81768 -3.22033,4.21566 -4.46318,6.07994c-1.05626,2.07707 -1.70355,2.82122 -3.66627,4.07726c-0.65541,0.41943 -2.56976,-0.39417 -2.41803,0.36902c0.05467,0.27501 2.09035,1.29805 1.958,1.54524c-0.09861,0.18419 -1.6438,-1.62856 -1.90305,-1.46407c-0.27051,0 -0.54108,0.00014 -0.8116,0.00014c-2,0 -4.0004,0.00115 -6.0004,0.00115c-0.97633,0 -1.99281,0.0658 -2.91904,-0.24294c-1,-0.33333 -1.97319,0.76196 -3.00003,1.00007c-2.68381,0.62235 -3.86191,1.4338 -6.32608,2.66589c-0.55307,0.27654 0.11229,2.00736 -0.16742,2.55884c-0.27182,0.53593 -0.91728,0.50118 -1.25061,1.00118c-0.33488,0.6585 -2.33361,0.25184 -2.37607,0.98938c-0.01871,0.32506 0.99167,-0.11199 0.70463,0.0417c-2.42995,1.301 -6.89019,0.63166 -9.09039,0.2542c-2.02174,-0.34684 -5.53346,-2.88953 -7.50126,-2.4983c-0.27501,0.05467 0.62262,0.77887 0.37544,0.64653c-0.40378,-0.21618 -0.52278,-0.93054 -0.96084,-0.99583c-0.03592,-0.25518 -0.1098,-0.47014 -0.33152,-0.54946l-0.46402,-1.38999c-0.62835,-2.04312 -1.45044,-1.71856 -3.69964,-1.71856c-1.99601,0 -2.47251,0.92395 -3.27423,2.61518l-0.45487,3.90633l-1.20706,1.27145c-0.51304,1.1569 -1.27247,1.72809 -1.17368,2.25376c0.05398,0.28724 1.14283,-0.10537 1.06587,0.17658c-0.44692,1.63741 -2.58034,1.50709 -3.46202,2.95744c-0.54755,0.90071 -0.91875,2.2513 -1.25208,3.2513c-0.05025,0.15075 -2.16387,-1.3992 -2.28305,-1.19474c-1.03959,0.10418 -2.53348,0.02759 -3.47667,0.02759c-0.97671,0 -1.95878,0.42292 -2.92141,0.25777c-2.07416,-0.35584 -3.16452,0.74535 -5.33644,0.74535c0.20234,0.14557 -0.10236,-0.69601 0.0917,-0.53608c-2.96492,0.00796 -4.472,0.9859 -7.34422,1.70679c-0.19372,0.04862 -2.13854,-1.46847 -2.2764,-1.20015c-0.07781,0.00779 -0.15521,0.01766 -0.23107,0.03138c-1.18128,0.21362 -5.10754,-1.22476 -6.92662,-1.74333c-0.9971,-0.28424 -3.51203,-1.69813 -4.50536,-1.50064c-0.27501,0.05467 0.70224,0.84034 0.45505,0.70799c-0.39872,-0.21347 -0.5209,-0.91307 -0.94566,-0.99343c-0.03098,-0.28623 -0.10102,-0.51985 -0.34824,-0.5525l-0.46442,-1.3908c-0.62835,-2.04312 -2.53744,-3.53022 -4.78663,-3.53022c-1.18639,0 0.36468,2.70467 -0.61229,3.37776c-1.51963,1.04695 -1.84989,1.93436 -1.84989,3.77973l-1.25038,0.42876c-0.17851,0.17851 -1.64739,0.19851 -1.8259,0.37703c-0.15753,0.15753 -0.48938,-1.14536 -0.74814,-0.96467c-0.23892,0 -0.47848,-0.00029 -0.7174,-0.00029c-1.66666,0 -3.08732,1.49789 -4.75398,1.49789c-2.16666,0 -4.58769,-1.50288 -6.75436,-1.50288c-0.5,0 -1.00088,-0.00067 -1.50088,-0.00067c-0.35828,0 -1.06231,-0.24179 -1.36897,-0.2057c-2.77099,-2.02443 -2.99423,-1.043 -7.21798,-1.043c-2.01405,0 -5.5812,1.46433 -6.83904,1.24854c-2.02174,-0.34684 -5.53525,-3.64511 -7.50305,-3.25387c-0.27501,0.05467 0.70194,0.84072 0.45475,0.70837c-0.7731,-0.41392 -2.08439,-2.8463 -2.94611,-2.99597c-0.031,-0.28608 -0.10081,-0.51984 -0.34794,-0.55248l-0.46408,-1.3915c-0.62835,-2.04312 -1.53251,-1.78158 -3.7817,-1.78158c-2.76143,0 -1.9112,1.69261 -1.9112,4.45403l-3.5008,3.49856c0,0.00345 -1.33656,-0.19295 -1.3366,-0.18944c-1.7194,0.06381 -3.81285,-1.10819 -4.66952,-1.25516c-0.51945,-0.08911 -0.98338,-0.60336 -1.50031,-0.50059c-0.27501,0.05467 0.70181,0.84066 0.45462,0.70832c-1.74132,-0.9323 -2.86847,-3.59499 -4.00159,-5.00324c-1.90081,-2.36235 -3.82873,-4.83151 -6.00177,-7.00455c0,0 -2.11266,0.62793 -3.99,1.01039c-0.91937,0.1873 -1.90487,-2.03111 -2.6251,-1.42979c-2.44859,0.08803 -4.95381,0.2266 -6.83999,-0.29077c-0.69238,-0.18991 -1.38396,-0.39175 -2.08309,-0.55539c-0.02967,-2.51109 -0.40657,-5.17066 0.24447,-7.12378c0.33334,-1 1.2053,-1.96747 0.99976,-3.00133c-0.05468,-0.27501 -0.8402,0.70174 -0.70786,0.45455c1.08043,-2.01799 4.63566,-4.38505 3.46401,-7.03873c-1.12376,-2.54522 -2.19027,-7.28949 -4.91912,-6.74695c-0.27501,0.05468 0.7016,0.84059 0.45441,0.70824c-0.45805,-0.24524 -1.70119,-1.74125 -2.53557,-2.50875c0,-0.81899 -0.00001,-1.63916 -0.00001,-2.45815c0,-3.0571 0.20059,-4.29355 1.24356,-7.42245c0.89952,-2.69857 1.50042,-4.55048 1.50042,-7.66602c0,-1.00402 -0.7432,-1.91616 -0.7432,-2.92018c0,-1.5 0.00042,-3.00207 0.00042,-4.50207c0,-0.00486 0.00005,-0.00979 0.00013,-0.01477c0.38773,0.00581 0.73009,-0.0036 0.73009,-0.0036l-0.63241,2.03919c0.66256,0 1.53517,-1.75232 2.19771,-1.75671c1.05541,-0.00699 1.14894,1.73637 2.20438,1.73637c5.72542,0 11.62078,0.40458 17.3225,-0.07017c3.50367,-0.29173 6.62295,-0.93422 10.17865,-0.93422c5.48217,0 10.57855,-0.55211 16.00164,-1.00453c3.07937,-0.25689 6.08189,0.24001 9.08289,-0.76032c4.64492,-1.61203 9.05354,-1.11185 13.92397,-1.25134c2.39908,-0.06871 3.82904,-0.67112 6.00415,-1.00463c6.03585,-0.92547 12.90882,-0.01291 19.023,-0.01291c12,0 24.04978,0.01564 36.04978,0.01564c5.5,0 11.00596,0.00844 16.50596,0.00844c2.16722,0 4.89521,0.4745 7.00134,0.00257c2.12052,-0.47516 5.82056,-0.25153 5.94546,-2.42103c0.01871,-0.32505 -1.1513,0.31826 -0.86426,0.16458c2.80282,-1.50063 5.86656,-1.71632 8.60214,-3.54004c1.13353,-0.81417 3.18208,-1.23084 3.2623,-2.62416c0.01871,-0.32505 -1.15166,0.31752 -0.86462,0.16384c1.4486,-0.77558 5.7536,-1.23296 5.86475,-3.16357c0.01871,-0.32505 -1.15192,0.31699 -0.86488,0.16331c2.38161,-1.27511 5.19477,-2.04091 7.65505,-3.27104c2.94491,-1.47245 8.19391,-3.21656 10.98325,-4.90098z" data-paper-data="{&quot;noHover&quot;:false,&quot;origItem&quot;:[&quot;Path&quot;,{&quot;applyMatrix&quot;:true,&quot;segments&quot;:[[[560.47214,418.94427],[5.88983,-2.94491],[-4.92055,2.46027]],[[545.16228,425.48683],[4.76322,-2.55023],[-0.57408,0.30736]],[[547.07107,425.07107],[0.03743,-0.65011],[-0.2223,3.86122]],[[535.16228,431.48683],[2.8972,-1.55116],[-0.57408,0.30736]],[[537.07107,431.07107],[0.03743,-0.65011],[-0.16044,2.78664]],[[530.547,436.3205],[2.26707,-1.62834],[-5.47117,3.64745]],[[513.16228,443.48683],[5.60564,-3.00127],[-0.57408,0.30736]],[[515.07107,443.07107],[0.03743,-0.65011],[-0.24981,4.33901]],[[503,448],[4.24103,-0.95032],[-4.21226,0.94387]],[[489,448],[4.33444,0],[-11,0]],[[456,448],[11,0],[-24,0]],[[384,448],[24,0],[-12.22837,0]],[[346,448],[12.07171,-1.85094],[-4.35023,0.66702]],[[334,450],[4.79816,-0.13742],[-9.74086,0.27897]],[[306.16228,452.48683],[9.28984,-3.22406],[-6.00199,2.00066]],[[288,454],[6.15874,-0.51379],[-10.84619,0.90483]],[[256,456],[10.96433,0],[-7.11139,0]],[[235.64399,457.86394],[7.00734,-0.58346],[-11.40345,0.9495]],[[201,458],[11.45084,0],[-3,0]],[[192,458],[3,0],[0,0]],[193.26526,453.91963],[[192.00026,453.97046],[0.77545,0.01161],[-0.00017,0.00997]],[[192,454],[0,-0.00972],[0,3]],[[192,463],[0,-3],[0,2.00803]],[[193.48683,468.83772],[0,-2.00803],[0,6.23109]],[[190.48683,484.16228],[1.79905,-5.39714],[-2.08593,6.2578]],[[188,499],[0,-6.1142],[0,1.63798]],[[188,503.91395],[0,-1.63798],[1.66877,1.53499]],[[193.07107,508.92893],[-0.9161,-0.49048],[0.49438,0.26469]],[[192.16228,507.51317],[-0.55002,0.10935],[5.45771,-1.08508]],[[202,521],[-2.24752,-5.09044],[2.3433,5.30736]],[[195.07107,535.07107],[2.16087,-4.03598],[-0.26469,0.49438]],[[196.48683,534.16228],[-0.10935,-0.55002],[0.41109,2.06772]],[[194.48683,540.16228],[0.66667,-2],[-1.30208,3.90625]],[[193.99638,554.40341],[-0.05934,-5.02218],[1.39827,0.32727]],[[198.16228,555.51317],[-1.38476,-0.37983],[3.77237,1.03474]],[[211.84165,556.0926],[-4.89718,0.17607],[6.7541,-5.63899]],[[225.07107,556.92893],[0,0],[4.34608,4.34608]],[[237.07107,570.92893],[-3.80162,-4.7247],[2.26623,2.8165]],[[245.07107,580.92893],[-3.48263,-1.8646],[0.49438,0.26469]],[[244.16228,579.51317],[-0.55002,0.10935],[1.03386,-0.20555]],[[247.16228,580.51317],[-1.03891,-0.17823],[1.71334,0.29394]],[[257.99987,580.02092],[-3.43881,0.12761],[0.00008,-0.00704]],[[258,580],[0,0.0069],[0,0]],[[258,574],[0,0],[0,-5.52285]],[[268,564],[-5.52285,0],[4.49839,0]],[[277.55975,571.05648],[-1.2567,-4.08625],[0,0]],[[278.48683,573.83772],[0,0],[0.49426,0.06528]],[[279.18221,574.9419],[-0.062,-0.57216],[1.72344,0.29934]],[[285.07107,580.92893],[-1.54621,-0.82784],[0.49438,0.26469]],[[284.16228,579.51317],[-0.55002,0.10935],[3.9356,-0.78246]],[[299.16228,584.51317],[-4.04347,-0.69369],[2.51568,0.43158]],[[310.83772,580.51317],[-4.02809,0],[8.44751,0]],[[327.26377,585.58995],[-5.54198,-4.04885],[0.61331,-0.07218]],[[330,586],[-0.71656,0],[1,0]],[[333,586],[-1,0],[4.33333,0]],[[346,586],[-4.33333,0],[3.33333,0]],[[356,586],[-3.33333,0],[0.47785,0]],[[357.43356,586],[-0.47785,0],[0.51752,-0.36138]],[[358.92893,584.92893],[-0.31507,0.31507],[0.35702,-0.35702]],[[360,583.85786],[-0.35702,0.35702],[0,0]],[[360,582],[0,0],[0,-5.52285]],[[370,572],[-5.52285,0],[4.49839,0]],[[379.55975,579.05648],[-1.2567,-4.08625],[0,0]],[[380.48683,581.83772],[0,0],[0.49443,0.0653]],[[381.18228,582.94252],[-0.06196,-0.57245],[0.84952,0.16073]],[[383.07107,584.92893],[-0.79743,-0.42694],[0.49438,0.26469]],[[382.16228,583.51317],[-0.55002,0.10935],[1.98665,-0.39498]],[[391.16228,586.51317],[-1.9942,-0.56848],[3.63816,1.03713]],[[405,590],[-2.36256,0.42724],[0.15173,-0.02744]],[[405.46164,589.9373],[-0.15562,0.01557],[0.27573,-0.53664]],[[406.51317,588.83772],[-0.38744,0.09724],[5.74443,-1.44178]],[[424.1825,586.92812],[-5.92985,0.01592],[-0.38813,-0.31986]],[[423,586],[0.40467,0.29114],[4.34384,0]],[[435.16228,588.51317],[-4.14833,-0.71168],[1.92528,0.3303]],[[441,588],[-1.95341,0],[1.8864,0]],[[447.94795,587.94772],[-2.07918,0.20837],[0.23837,-0.40893]],[[448.51317,586.83772],[-0.1005,0.3015],[0.66667,-2]],[[450.51317,580.83772],[-1.09511,1.80143],[1.76336,-2.90069]],[[456.92893,572.92893],[-0.89384,3.27483],[0.15391,-0.5639]],[[455.29857,573.57464],[0.10796,0.57447],[-0.19757,-1.05134]],[[457.14158,567.57079],[-1.02607,2.31381],[0,0]],[457.05573,567.52786],[[460.95884,559.72163],[0,0],[1.60344,-3.38246]],[[470,554],[-3.99203,0],[4.49839,0]],[[479.55975,561.05648],[-1.2567,-4.08625],[0,0]],[[480.48683,563.83772],[0,0],[0.44344,0.15865]],[[481.14961,564.937],[-0.07185,-0.51037],[0.87613,0.13057]],[[483.07107,566.92893],[-0.80756,-0.43237],[0.49438,0.26469]],[[482.16228,565.51317],[-0.55002,0.10935],[3.9356,-0.78246]],[[497.16228,570.51317],[-4.04347,-0.69369],[4.4004,0.75492]],[[514.83772,566.51317],[-4.8599,2.602],[0.57408,-0.30736]],[[512.92893,566.92893],[-0.03743,0.65011],[0.08493,-1.47508]],[[515.6795,563.453],[-0.66975,1.31701],[0.66667,-1]],[[517.6795,560.453],[-0.54365,1.07186],[0.55942,-1.10296]],[[518.51317,556.83772],[-1.10615,0.55308],[4.92834,-2.46417]],[[534.16228,551.51317],[-5.36762,1.2447],[2.05369,-0.47623]],[[540.16228,553.51317],[-2,-0.66667],[1.85246,0.61749]],[[546,554],[-1.95266,0],[4,0]],[[558,554],[-4,0],[0.54103,0]],[[559.62309,554],[-0.54103,0],[0.51851,-0.32899]],[[560.92893,552.92893],[-0.19723,0.36837],[0.26469,-0.49438]],[[559.51317,553.83772],[0.10935,0.55002],[-0.92365,-4.64575]],[[567.6795,541.453],[-1.93521,3.80546],[2.48571,-3.72856]],[[574.10445,530.29984],[-2.55652,3.63536],[0.85396,-6.66259]],[[583.09642,522.06371],[-2.2785,0.25926],[0,0]],[583.12901,522.038],[[583.56454,522.01994],[-0.27769,0.00426],[0.27701,-0.01994]],[[584,522],[0,0],[7.06132,0]],[[605.76026,518.99791],[-6.83511,2.4273],[-2.65016,-3.72526]],[[604,503],[0,3.84994],[0,-4.31218]],[[602,490],[0.25084,5.45614],[-0.23673,-5.14929]],[[602,474],[0.8709,5.07641],[-0.18057,-1.05251]],[[600.51317,471.16228],[0.50405,0.94144],[-0.30736,-0.57408]],[[600.92893,473.07107],[0.65011,0.03743],[-2.78664,-0.16044]],[[595.6795,466.547],[1.62834,2.26707],[-2.41208,-3.61812]],[[590.51317,455.16228],[1.91706,3.77969],[-4.4866,-8.84581]],[[578.51317,425.16228],[1.53475,10.30719],[-0.84847,-5.69824]],[[577.43891,409.14289],[0.73945,4.99692],[-5.57868,3.36883]]],&quot;closed&quot;:true}],&quot;origPos&quot;:null}" fill="#fefefe" stroke="none" stroke-width="0.5"/><path d="M315.20654,252.42224l-0.94996,-1.84109c-0.82763,-2.48288 -1.82865,-4.99 -2.25658,-7.58114c-0.08053,-0.48757 -0.47344,-1.34942 -0.01652,-1.49515c-0.82405,-1.30494 -1.32881,-2.45037 -1.98348,-4.50485c-0.45263,-1.42042 0.35872,-3.42137 0.14929,-4.78732c-0.42494,-2.77146 -1.51005,-5.48359 -2.3927,-8.13154c-0.96129,-3.91479 -1.16002,-6.48006 -2.5,-10.5c-0.54909,-1.64727 -0.94687,-2.70583 -1.25658,-4.58114c-0.06768,-0.40982 -0.34699,-1.29245 -0.17037,-1.48103c-0.69745,-1.12926 -1.36316,-2.28194 -1.82963,-3.51897c-0.28608,-0.75867 0.35862,-1.6145 0.25658,-2.41886c-0.06633,-0.52285 -0.60278,-0.98307 -0.5,-1.5c0.05467,-0.27501 0.84023,0.70158 0.70788,0.4544c-0.80114,-1.49634 -2.3262,-2.50405 -3.20788,-3.9544c-0.73591,-1.21055 -1.05059,-3.15178 -1.5,-4.5c-0.66269,-1.98806 -1.44662,-3.99947 -1.75658,-6.08114c-0.22312,-1.49847 0.53239,-2.86088 -0.16025,-4.2265c-0.97014,-1.91273 -2.18859,-3.73005 -2.83975,-5.7735c-0.63274,-1.98568 -0.35633,-1.93754 0.04282,-1.44872c-1.95122,-3.24773 -2.93068,-6.91425 -4.02587,-10.55128c-3.83898,0 -7.67797,0 -11.51695,0c-3.34426,-0.27849 -5.76403,-0.70876 -9.08114,-1.25659c-1.24928,-0.20632 -3.67714,-1.66878 -4.41886,-1.74341c-3.13224,-0.3152 -6.35411,0.1762 -9.5,0c-0.12325,-0.0069 -4.36059,-0.98231 -4.5,-1c-3.05456,-0.38748 -6.41645,0 -9.5,0c-3.59538,-0.29941 -7.32981,-1.45613 -10.5,-2c-2.66547,-0.45728 -5.79629,0 -8.5,0c-5.33334,0 -10.66666,0 -16,0c-4.6777,0 -8.90569,-0.47404 -13.5,-1c-2.85573,-0.32692 -5.70792,0.21793 -8.58114,-0.25659c-1.12681,-0.18609 -5.45337,-1.35894 -5.69236,-2.58317c-0.08197,-0.41992 1.62277,0.08687 1.2735,-0.16025c-0.81634,-0.57757 -2,0 -3,0c-2.5,0 -5,0 -7.5,0c-2.84115,0 -6.21087,0.50438 -9,0c-0.47221,-0.08539 -0.94821,0.33699 -1.41886,0.24341c-0.27501,-0.05468 0.70158,-0.84022 0.4544,-0.70788c-4.13324,2.21294 -5.35602,3.99411 -10.11668,3.20788c-0.52,-0.08588 -1.10723,-0.14856 -1.5,-0.5c-1.78593,-1.59801 -3.50658,-3.30728 -4.91886,-5.24341c-0.90132,-1.23565 0.00737,-3.07214 0.25659,-4.58114c0.68009,-4.11799 4.13592,-8.35645 7.46991,-10.57911c4.43573,-2.92493 8.49959,-6.4049 12.11325,-10.11325c0.54638,-0.56069 3.73809,-4.49244 5.94757,-4.07721c0.28724,0.05398 -0.6048,0.89213 -0.32286,0.81518c0.45477,-0.12413 0.6004,-0.74991 1,-1c1.45852,-0.91282 2.9426,-1.81403 4.53554,-2.46447c0.27948,-0.11412 0.83087,-0.26161 1.18616,-0.25723c0.09277,-0.09276 0.18553,-0.18554 0.2783,-0.2783c1.78302,-1.78302 3.51542,-3.44938 5.53554,-4.96447c3.2334,-2.28636 4.99293,-5.05991 7.46446,-8.03553c1.87196,-2.25376 4.57823,-3.96699 6.37529,-6.23797c1.96374,-2.48161 3.7442,-4.76986 5.89889,-7.02016c0.66958,-1.11755 1.68013,-1.67307 2.60336,-1.94463c0.76184,-0.3106 1.70299,-0.49873 2.72253,-0.26168c2.08067,0.00183 4.03122,0.09476 6.0166,0.75656c-0.18327,0.5498 3.5264,0.24341 3.91886,0.24341c2.50857,0 5.0971,-0.15366 7.58114,0.25659c1.32179,0.21829 3.59287,1.60171 4.41886,1.74341c6.17383,1.05917 11.91145,1 18.5,1c9.7987,0 19.71179,-0.45 29.5,0c2.72807,0.12542 4.34391,1 6.5,1c6.35441,0 12.48588,0.29139 18.71268,1.14929c6.00157,0.82686 12.13479,3.69607 17.86846,5.6073c1.70522,0.56841 4.61696,2.02007 5.91886,2.24341c1.50741,0.25861 3.07214,0.00737 4.58114,0.25659c1.32178,0.21829 3.59287,1.60171 4.41886,1.74341c3.77832,0.6482 8.17898,0.0937 12.09425,0.01016c0.54107,-0.06928 1.15204,-0.05315 1.84131,0.07815c1.45743,0.2776 2.40002,0.90529 3.005,1.65087c0.61921,0.7338 1.05944,1.77719 1.05944,3.26082c0,0.32724 -0.02142,0.63307 -0.06145,0.91887l0.80487,-0.50002c1.58841,4.76523 3.56765,9.58074 4.25658,14.58114c0.06745,0.48955 0.47314,1.34945 0.01652,1.49514c0.82405,1.30494 1.32881,2.45037 1.98348,4.50486c0.67253,2.11056 -0.35972,4.10943 0.24342,5.91886c0.66269,1.98806 1.44662,3.99947 1.75658,6.08114c0.11942,0.80197 -0.35862,1.6145 -0.25658,2.41886c0.19927,1.57086 0.99857,3.01885 1.25658,4.58114c0.07831,0.4742 -0.33785,0.94515 -0.25658,1.41886c0.26774,1.56065 1.02338,3.01496 1.25658,4.58114c0.21726,1.45913 -0.39457,4.61458 -0.25658,5.41886c0.26774,1.56065 1.02338,3.01496 1.25658,4.58114c0.44882,3.01424 0,6.44634 0,9.5c-0.35564,0.68447 0.18463,1.53406 0.35071,2.28732c0.72724,3.29844 1.18652,6.85378 1.64929,10.21268c0.55457,4.02525 -0.74561,8.56381 -0.25658,12.41886c0.19927,1.57086 0.99857,3.01885 1.25658,4.58114c0.43824,2.65355 0.35408,5.25084 1.24342,7.91886c0.51072,4.76223 0.75467,5.56585 -1.70788,9.61668c-0.24487,0.40282 -0.52938,0.9729 -1,1c-0.32506,0.01871 0.36156,-1.24143 0.20788,-0.9544c-1.16999,2.18526 -2.40953,4.40953 -4.16228,6.16227c-0.37268,0.37268 -0.98307,0.60278 -1.5,0.5c-0.27501,-0.05468 0.70158,-0.84022 0.45439,-0.70788c-1.7095,0.91527 -3.25241,3.41003 -4.76203,4.62471c-3.05757,2.46021 -6.39119,4.78015 -8.61325,8.11325c-1.54281,1.49574 -2.97152,4.38893 -5.07911,3.96991c-0.27501,-0.05468 0.70158,-0.84022 0.45439,-0.70788c-1.1197,0.59948 -1.7725,1.82851 -2.76203,2.62471c-2.39195,1.92462 -4.5897,4.06062 -7,6c-0.75672,0.60888 -3.77054,2.37357 -4.19236,2.58317c-1.07414,0.53373 -2.18647,0.99064 -3.30764,1.41683c-0.12556,0.04773 -0.01826,-0.48174 -0.11325,-0.38675c-0.84983,0.84983 -1.33333,2 -2,3c0,0 -2.7735,4.16025 -6.93375,1.38675c-4.16025,-2.7735 -1.38675,-6.93375 -1.38675,-6.93375c0.51492,-0.77238 1.03443,-1.52561 1.5872,-2.24053c-0.15356,-0.33843 -0.22041,-0.56373 -0.22041,-0.56373zM300.85071,168.78732c0.24987,0.59853 1.11262,0.8212 1.30954,1.43918c0.44076,1.38322 0.63079,2.83688 0.83975,4.2735c0.07196,0.4948 -0.28879,1.09183 0,1.5c0.24712,0.34927 -0.25967,-1.35548 0.16025,-1.2735c0.58979,0.11514 0.7326,0.96185 1,1.5c1.6793,3.37959 1.38039,6.15238 1.83975,9.7735c0.13309,1.04915 0.90899,1.91557 1.24342,2.91886c0.4698,1.40939 0.79997,3.19251 1.5,4.5c0.15368,0.28704 -0.53294,-0.97311 -0.20788,-0.9544c1.73476,0.09987 2.00058,2.86723 2.70788,4.4544c0.74833,1.67922 0.66945,2.79015 0.74192,4.728c0.19518,0.15903 0.39037,0.42618 0.5502,0.8176c0.84395,2.06687 1.08697,4.33515 1.46447,6.53554c0.22335,1.3019 1.67501,4.21363 2.24342,5.91886c0.48944,1.4683 0.67003,3.03583 0.75658,4.58114c0.08718,1.55647 -0.48925,1.66308 0.24342,1.41886c0.95758,2.87274 2.1926,5.85852 2.6073,8.86846c0.25707,1.86587 0.14929,3.82986 0.14929,5.71268c0,0.5 -0.28879,1.09183 0,1.5c0.24712,0.34927 -0.25967,-1.35548 0.16025,-1.2735c0.58979,0.11514 0.81755,0.92744 1,1.5c0.59045,1.85295 0.51091,3.85675 0.83975,5.7735c0.1211,0.70585 1.36349,3.27907 1.74342,4.41886l0.05751,0.11826c0.20948,-0.08554 0.41589,-0.17806 0.61793,-0.28053c1.98224,-1.00539 3.31059,-3.39608 5.04561,-4.79212c1.41584,-1.13922 3.42587,-3.04307 5,-4c1.09761,-0.66725 2.28111,-1.18502 3.45439,-1.70788c0.4814,-0.21454 1.99263,-0.31267 1.5,-0.5c-0.51332,-0.1952 -1.05274,0.31327 -1.57911,0.46991c3.36721,-5.05083 8.46265,-8.09996 12.62472,-12.26203c1.60755,-1.60754 2.37179,-2.24442 4.26588,-3.15957c0.15762,-0.31306 0.39601,-0.67181 0.52623,-0.88603c0.88168,-1.45034 2.40674,-2.45806 3.20788,-3.9544c0.11907,-0.22239 -0.50482,0.54577 -0.67102,0.50188c-0.01297,0.03816 -0.02532,0.07643 -0.03686,0.1148c-1.24963,-3.74889 -1.11097,-7.3179 -1.75658,-11.08114c-0.18002,-1.04932 -0.926,-3.39049 -1,-5c-0.17913,-3.89639 0.5913,-8.14357 0,-12c-0.6332,-4.12968 -1.76783,-8.2814 -2,-12.5c0,-3.08355 0.38749,-6.44544 0,-9.5c-0.01768,-0.13941 -0.99309,-4.37675 -1,-4.5c-0.10134,-1.80938 0.22775,-3.70467 0,-5.5c-0.24575,-1.93727 -1.42525,-5.28206 -1.74342,-7.41886c-0.27428,-1.84204 -0.02221,-3.7336 -0.25658,-5.58114c-0.13309,-1.04915 -0.90899,-1.91557 -1.24342,-2.91886c-0.66863,-2.00591 -0.75658,-3.97624 -0.75658,-6.08114c0,-1 0.57757,-2.18366 0,-3c-0.24712,-0.34927 0.25967,1.35548 -0.16025,1.2735c-0.58979,-0.11514 -0.81755,-0.92744 -1,-1.5c-0.44076,-1.38322 -0.63079,-2.83688 -0.83975,-4.2735c-0.56311,-3.8715 -1.9376,-7.64194 -3.22961,-11.4038c-3.27303,0.15842 -6.71007,0.40922 -9.77039,-0.0962c-2.62547,-0.4336 -5.00034,-1.81383 -7.58114,-2.25659c-0.4737,-0.08127 -0.94466,0.3349 -1.41886,0.25659c-3.09172,-0.5106 -6.11644,-1.76835 -9.08114,-2.75659c-5.53859,-1.84619 -11.34516,-4.50548 -17.13154,-5.3927c-5.37856,-0.82469 -10.71359,-0.85071 -16.28732,-0.85071c-2.166,0 -4.01693,-0.99473 -6.08114,-1.25659c-2.41333,-0.30614 -5.82085,0.25659 -8.41886,0.25659c-7.16666,0 -14.33334,0 -21.5,0c-3.95557,0 -8.57772,0.64777 -12.5,0c-4.63678,-0.76577 -8.69502,-2.41833 -13.58114,-3.25659c-3.04817,-0.52294 -7.76162,0.41797 -11.5,-0.5c-0.56429,-0.1881 -1.16201,-0.23735 -1.76376,-0.24712c-1.93687,2.1554 -3.60835,4.4228 -5.61956,6.53924c-1.93483,2.03606 -4.19833,3.84987 -6,6c-2.78392,3.32234 -5.0332,6.25095 -8.53554,8.96447c-1.96903,1.47678 -4.26828,5.13877 -6.46446,6.03553c-1.26483,0.51646 -2.58652,0.8867 -3.91792,1.20629c-0.13954,0.25178 -0.77591,0.63179 -1.08208,0.79371c-1.37911,0.72939 -2.85018,1.27591 -4.31519,1.81237c0.25111,0.41502 -0.70511,0.98441 -1.0601,1.4256c-0.50083,0.62244 -1.07437,1.1829 -1.62471,1.76203c-3.34948,3.52471 -8.24011,6.92187 -12.26203,9.62471c-0.3731,0.24873 -0.76222,0.57388 -1.13282,0.93977c0.8722,-0.40168 1.74867,-0.75598 2.27818,-0.84343c3.90613,-0.64511 8.13093,-0.25659 12.08114,-0.25659c3.00187,0 7.66261,-0.90415 10.5,0c2.76539,0.8812 4.84474,2.78714 7.58114,3.25659c0.78469,0.13462 3.97749,-0.41362 5.41886,-0.25659c4.70582,0.51269 8.73479,1 13.5,1c5.33334,0 10.66666,0 16,0c2.71269,0 5.8229,-0.44213 8.5,0c1.56229,0.25802 3.02049,0.98884 4.58114,1.25659c0.4737,0.08127 0.94466,-0.3349 1.41886,-0.25659c1.04343,0.17233 2.06126,0.47683 3.08114,0.75659c1.5527,0.42589 1.66442,1.01996 1.41886,0.24341c3.05366,0 6.48576,-0.44882 9.5,0c1.56618,0.2332 3.02049,0.98884 4.58114,1.25659c2.20196,0.37777 6.5919,-0.63981 9.41886,-0.25659c2.66335,0.36104 4.98345,1.81093 7.58114,2.25659c0.4737,0.08127 0.94466,-0.3349 1.41886,-0.25659c1.04343,0.17233 2.06126,0.47683 3.08114,0.75659c1.55269,0.42589 1.66442,1.01996 1.41886,0.24341c4.5,0 9,0 13.5,0l2.35784,0.93486c1.84686,0.03737 3.0118,1.15997 3.67294,2.12083c0.47193,0.60924 0.94422,1.44947 1.05862,2.46024c0.91742,3.06277 1.56428,6.40399 2.76132,9.27139z" data-paper-data="{&quot;origPos&quot;:null}" fill="#3b2d2d" stroke="none" stroke-width="0.5"/><path d="M293.5641,162.17731c-0.12417,-1.09713 -0.63565,-2.00606 -1.1479,-2.66734c-0.71763,-1.04296 -1.98026,-2.25748 -3.98492,-2.29804l-2.55806,-1.01246c-4.88447,0 -9.76147,0.01015 -14.64594,0.01015c0.26655,0.84289 0.14681,0.19966 -1.53855,-0.26263c-1.10702,-0.30365 -2.20766,-0.63048 -3.34023,-0.81752c-0.51471,-0.08501 -1.02432,0.36795 -1.5385,0.27973c-2.81964,-0.48373 -5.32291,-2.0496 -8.21381,-2.4415c-3.06849,-0.41597 -7.81196,0.69124 -10.20206,0.2812c-1.69399,-0.29061 -3.26278,-1.11247 -4.96277,-1.3656c-3.27177,-0.48717 -6.98096,-0.00727 -10.29552,-0.00727c0.26655,0.84289 0.14685,0.19697 -1.5385,-0.26531c-1.10702,-0.30365 -2.20904,-0.63631 -3.34161,-0.82335c-0.51471,-0.08501 -1.02432,0.36537 -1.53849,0.27716c-1.69399,-0.29061 -3.274,-1.08652 -4.96977,-1.36658c-2.90582,-0.4799 -6.27691,-0.00568 -9.22137,-0.00568c-5.789,0 -11.57322,-0.00774 -17.36222,-0.00774c-5.17233,0 -9.54384,-0.53263 -14.65171,-1.08913c-1.56452,-0.17045 -5.02947,0.42305 -5.88121,0.27693c-2.9702,-0.50956 -5.22728,-2.57811 -8.22893,-3.5346c-3.07981,-0.9814 -8.138,-0.00208 -11.39634,-0.00208c-4.2877,0 -8.87282,-0.42376 -13.11267,0.27646c-0.57474,0.09492 -1.5259,0.47879 -2.47261,0.91478c0.40226,-0.39715 0.7203,-0.78 1.12527,-1.04998c4.36555,-2.93376 9.67646,-6.62785 13.31211,-10.4537c0.59737,-0.62861 1.22043,-1.23811 1.76406,-1.91374c0.38531,-0.47888 1.42366,-1.0978 1.15109,-1.54828c1.59018,-0.58229 3.18789,-1.17734 4.68482,-1.96905c0.33232,-0.17576 1.0234,-0.58886 1.17487,-0.86215c1.44516,-0.34688 2.88067,-0.75031 4.25356,-1.3109c2.38382,-0.97338 4.88245,-4.95263 7.01971,-6.55557c3.80157,-2.94536 6.24803,-6.13 9.2698,-9.73619c1.95561,-2.33383 4.41637,-4.30617 6.51652,-6.51619c2.18305,-2.29726 4.00147,-4.76149 6.10383,-7.10105c0.65316,0.0106 1.30262,0.06362 1.91512,0.26778c4.05778,0.9964 9.1793,-0.028 12.4879,0.53961c5.30358,0.90987 9.71581,2.70058 14.74875,3.53178c4.25739,0.70311 9.28334,-0.00215 13.57686,-0.00215c7.77897,0 15.57447,-0.00002 23.35343,-0.00002c2.81998,0 6.52469,-0.60951 9.14421,-0.27722c2.24058,0.28423 4.25402,1.36534 6.60508,1.36534c6.04993,0 11.85039,0.03289 17.68848,0.92804c6.28075,0.96302 12.59225,3.85624 18.60404,5.86017c3.218,1.07267 6.50471,2.44154 9.86057,2.99577c0.51471,0.08501 1.0262,-0.36638 1.54038,-0.27817c2.80129,0.48058 5.38144,1.98167 8.23123,2.45231c3.32179,0.5486 8.62279,-0.24393 12.17547,-0.41588c1.4024,4.08326 1.32888,8.70392 1.9401,12.90619c0.22681,1.55937 0.43407,3.13926 0.91249,4.64066c0.19804,0.62148 0.44566,1.50406 1.08584,1.62904c0.4558,0.08898 -0.09453,-1.76195 0.1737,-1.38284c0.62692,0.88609 0.0006,2.17224 0.0006,3.25767c0,2.28474 0.09664,4.42645 0.8224,6.60374c0.363,1.089 1.20575,2.03111 1.35021,3.1699c0.25439,2.00539 -0.01838,4.06147 0.27934,6.06088c0.34535,2.31936 1.62652,5.95409 1.89327,8.05687c0.2472,1.94872 -0.10956,4.00896 0.00044,5.97293c0.00749,0.13378 1.06649,4.7357 1.08568,4.88702c0.42059,3.31553 0.00011,6.96998 0.00011,10.31698c0.252,4.57903 1.48296,9.0922 2.17026,13.57471c0.64182,4.18591 -0.19575,8.80213 -0.00132,13.03141c0.08032,1.74702 0.88936,4.29048 1.08476,5.42945c0.70077,4.08476 0.54854,7.96331 1.90493,12.03249c0.01253,-0.04165 -0.07392,-0.12575 -0.05983,-0.16717c0.1804,0.04764 0.95761,-0.74395 0.82836,-0.50256c-0.86959,1.62418 -2.52593,2.7202 -3.48294,4.29446c-0.14136,0.23253 -0.40033,0.62238 -0.57141,0.96219c-2.05592,0.99334 -2.88655,1.68675 -4.63144,3.43164c-4.51767,4.51767 -10.05327,7.83476 -13.70817,13.31711c0.57134,-0.17002 1.07052,-0.78773 1.6277,-0.57585c0.53472,0.20334 -1.01929,0.37563 -1.54182,0.6085c-1.27352,0.56753 -2.5593,1.13099 -3.75069,1.85525c-1.70862,1.03869 -3.89263,3.10775 -5.42943,4.34429c-1.88326,1.51532 -3.32777,4.11291 -5.47936,5.20419c-0.2193,0.11123 -0.44361,0.21189 -0.67098,0.30474l-0.13571,-0.20843c-0.41239,-1.23717 -1.76163,-4.02958 -1.89307,-4.79574c-0.35693,-2.08051 -0.27203,-4.2541 -0.91293,-6.26536c-0.19804,-0.62148 -0.36752,-1.42743 -1.0077,-1.5524c-0.4558,-0.08898 0.01682,1.68538 -0.2514,1.30627c-0.31346,-0.44304 -0.00046,-1.08497 -0.00046,-1.62769c0,-2.04369 0.11526,-4.17359 -0.16378,-6.19887c-0.45013,-3.2671 -1.79288,-6.5053 -2.83227,-9.62348c-0.79527,0.26509 -0.17001,0.14992 -0.26464,-1.53953c-0.09394,-1.67734 -0.29137,-3.37684 -0.82262,-4.9706c-0.61697,-1.85091 -2.19423,-5.00899 -2.43667,-6.42212c-0.40975,-2.38839 -0.67555,-4.84684 -1.59161,-7.0903c-0.17348,-0.42486 -0.38554,-0.71447 -0.59739,-0.88709c-0.07866,-2.10341 0.00547,-3.30604 -0.80679,-5.12872c-0.76774,-1.72276 -1.05735,-4.72377 -2.94032,-4.83218c-0.35283,-0.02031 0.39273,1.34675 0.22592,1.03518c-0.75984,-1.41919 -1.11942,-3.35109 -1.62936,-4.8809c-0.363,-1.089 -1.20587,-2.02696 -1.35033,-3.16574c-0.4986,-3.9305 -0.17566,-6.93 -1.99844,-10.59834c-0.29025,-0.58413 -0.33679,-1.49928 -0.97698,-1.62425c-0.4558,-0.08898 -0.01419,1.75771 -0.28241,1.3786c-0.31346,-0.44304 0.07806,-1.08934 -0.00005,-1.62641c-0.22681,-1.55937 -0.43292,-3.13219 -0.91134,-4.63359c-0.21374,-0.67078 -1.15003,-0.91062 -1.42125,-1.56029c-1.29931,-3.11239 -1.99887,-6.72758 -2.99467,-10.05202z" data-paper-data="{&quot;noHover&quot;:false,&quot;origItem&quot;:[&quot;Path&quot;,{&quot;applyMatrix&quot;:true,&quot;segments&quot;:[[[589.70143,327.57464],[-2.39408,-5.73481],[0.49974,1.19707]],[[592.3205,330.453],[-0.39384,-1.23596],[0.88153,2.76643]],[[594,339],[-0.41791,-2.87325],[0.14393,0.98959]],[[594,342],[-0.57757,-0.81634],[0.49423,0.69854]],[[594.3205,339.453],[-0.83984,-0.16395],[1.17958,0.23027]],[[596.3205,342.453],[-0.53481,-1.0763],[3.35861,6.75919]],[[600,362],[-0.91871,-7.24224],[0.26618,2.0983]],[[602.48683,367.83772],[-0.66886,-2.00657],[0.9396,2.81879]],[[605.48683,376.83772],[-1.40006,-2.61497],[0.30736,0.57408]],[[605.07107,374.92893],[-0.65011,-0.03743],[3.46952,0.19975]],[[610.48683,383.83772],[-1.41461,-3.17432],[1.49666,3.35844]],[[611.97067,393.29372],[-0.14493,-3.87569],[0.39035,0.31807]],[[613.07107,394.92893],[-0.31965,-0.78284],[1.68791,4.13374]],[[616,408],[-0.75499,-4.40078],[0.4467,2.6038]],[[620.48683,419.83772],[-1.13682,-3.41045],[0.97887,2.93661]],[[622,429],[-0.1731,-3.09062],[0.17435,3.11294]],[[622.48683,431.83772],[-1.46534,0.48845],[1.91516,5.74548]],[[627.70143,449.57464],[-0.82939,-6.01988],[0.51414,3.73173]],[[628,461],[0,-3.76565],[0,1]],[[628,464],[-0.57757,-0.81634],[0.49423,0.69854]],[[628.3205,461.453],[-0.83984,-0.16395],[1.17958,0.23027]],[[630.3205,464.453],[-0.3649,-1.14512],[1.1809,3.7059]],[[632,476],[-0.65767,-3.8335],[0.24219,1.4117]],[[635.48683,484.83772],[-0.75986,-2.27958],[0,0]],[[635.60186,485.07423],[0,0],[0.41896,-0.17108]],[[636.83772,484.51317],[-0.40408,0.20495],[3.96447,-2.01078]],[[646.92893,474.92893],[-3.47004,2.79209],[2.83167,-2.27843]],[[656.92893,466.92893],[-3.14826,1.91387],[2.19522,-1.3345]],[[663.83772,463.51317],[-2.34656,1.04572],[0.96281,-0.42907]],[[666.83772,462.51317],[0.98526,0.37467],[-1.02664,-0.3904]],[[663.6795,463.453],[1.05274,-0.31328],[6.73443,-10.10165]],[[688.92893,438.92893],[-8.32414,8.32414],[3.21509,-3.21509]],[[697.4607,432.60978],[-3.78819,1.83031],[0.31523,-0.62612]],[[698.51317,430.83772],[-0.26046,0.42845],[1.76336,-2.90069]],[[704.92893,422.92893],[-1.60228,2.99268],[0.23814,-0.44478]],[[703.58689,423.93268],[0.3324,0.08778],[-0.02595,0.07633]],[[703.51317,424.16228],[0.02309,-0.07675],[-2.49926,-7.49777]],[[700,402],[1.29122,7.52648],[-0.36004,-2.09863]],[[698,392],[0.14799,3.21901],[-0.35826,-7.79277]],[[698,368],[1.1826,7.71286],[-1.2664,-8.25936]],[[694,343],[0.46433,8.4372],[0,-6.1671]],[[694,324],[0.77497,6.10912],[-0.03537,-0.27882]],[[692,315],[0.01381,0.2465],[-0.20268,-3.61876]],[[692,304],[0.45549,3.59067],[-0.4915,-3.87454]],[[688.51317,289.16228],[0.63634,4.27359],[-0.54856,-3.68407]],[[688,278],[0.46874,3.69508],[-0.26618,-2.0983]],[[685.51317,272.16228],[0.66886,2.00657],[-1.33727,-4.01181]],[[684,260],[0,4.2098],[0,-2]],[[684,254],[1.15514,1.63268],[-0.49423,-0.69854]],[[683.6795,256.547],[0.83984,0.16395],[-1.17958,-0.23027]],[[681.6795,253.547],[0.3649,1.14512],[-0.88153,-2.76643]],[[680,245],[0.41791,2.87325],[-1.12621,-7.743]],[[673.54078,222.1924],[2.58402,7.52372],[-6.54607,0.31683]],[[654,222],[6.12065,1.01084],[-5.25095,-0.8672]],[[638.83772,217.48683],[5.16159,0.88551],[-0.94741,-0.16254]],[[636,218],[0.9484,0.15663],[-6.18343,-1.02121]],[[617.83772,212.48683],[5.92941,1.97647],[-11.07718,-3.69239]],[[583.57464,201.70143],[11.57275,1.77444],[-10.75713,-1.64938]],[[551,200],[11.14746,0],[-4.33199,0]],[[538.83772,197.48683],[4.12843,0.52371],[-4.82666,-0.61228]],[[522,198],[5.19603,0],[-14.33333,0]],[[479,198],[14.33333,0],[-7.91113,0]],[[454,198],[7.84456,1.29554],[-9.27356,-1.53154]],[[426.83772,191.48683],[9.77224,1.6765],[-6.09633,-1.04587]],[[403.83772,190.48683],[7.47677,1.83594],[-1.12858,-0.37619]],[[400.3102,189.99259],[1.2035,0.01954],[-3.87375,4.3108]],[[389.07107,203.07107],[4.02243,-4.23287],[-3.86967,4.07212]],[[377.07107,215.07107],[3.60335,-4.30025],[-5.56784,6.64468]],[[360,233],[7.00467,-5.42704],[-3.93807,2.95355]],[[347.07107,245.07107],[4.39237,-1.79352],[-2.52965,1.03292]],[[339.23522,247.48364],[2.66281,-0.63916],[-0.27909,0.50357]],[[337.07107,249.07107],[0.61233,-0.32385],[-2.75821,1.45878]],[[328.44069,252.69581],[2.93002,-1.07291],[0.50223,0.83005]],[[326.3205,255.547],[0.70997,-0.88237],[-1.00167,1.24489]],[[323.07107,259.07107],[1.10069,-1.15827],[-6.69895,7.04941]],[[298.547,278.3205],[8.04385,-5.40568],[-0.74619,0.49746]],[[296.28137,280.20003],[0.74119,-0.73178],[1.74439,-0.80335]],[[300.83772,278.51317],[-1.059,0.1749],[7.81226,-1.29021]],[[325,278],[-7.90041,0],[6.00373,0]],[[346,278],[-5.67479,-1.8083],[5.53078,1.7624]],[[361.16228,284.51317],[-5.47281,-0.9389],[1.56939,0.26924]],[[372,284],[-2.88275,-0.31407],[9.41163,1.02538]],[[399,286],[-9.53041,0],[10.66667,0]],[[431,286],[-10.66667,0],[5.42538,0]],[[448,286],[-5.35419,-0.88425],[3.12458,0.51603]],[[457.16228,288.51317],[-3.1213,-0.53548],[0.94741,0.16254]],[[460,288],[-0.9484,-0.15663],[2.08685,0.34465]],[[466.16228,289.51317],[-2.03977,-0.5595],[3.10539,0.85179]],[[469,290],[0.49113,1.55309],[6.10732,0]],[[488,290],[-6.02849,-0.89765],[3.13237,0.46641]],[[497.16228,292.51317],[-3.1213,-0.53548],[4.40393,0.75553]],[[516,292],[-5.65392,-0.76645],[5.3267,0.72209]],[[531.16228,296.51317],[-5.19539,-0.89131],[0.94741,0.16254]],[[534,296],[-0.9484,-0.15663],[2.08685,0.34465]],[[540.16228,297.51317],[-2.03977,-0.5595],[3.10539,0.85179]],[[543,298],[0.49113,1.55309],[9,0]],[[570,298],[-9,0],[0,0]],[[574.71567,299.86972],[0,0],[3.69373,0.07475]],[[582.06156,304.11139],[-1.32229,-1.92173],[0.94386,1.21847]],[[584.17879,309.03186],[-0.22879,-2.02154],[1.83484,6.12553]]],&quot;closed&quot;:true}],&quot;origPos&quot;:null}" fill="#8a837d" stroke="none" stroke-width="0.5"/><path d="M100,216l5,-37c0,0 13.67425,10.55216 21.14636,10.90557c22.41634,1.06023 125.85364,0.09443 125.85364,0.09443l4,27z" data-paper-data="{&quot;origPos&quot;:null}" fill="#fea576" stroke="#3b2d2d" stroke-width="10"/><path d="M176.16025,249.2265c2.7735,4.16025 -1.38675,6.93375 -1.38675,6.93375l2.96992,-0.57911c-1.71974,5.15922 -6.71156,13.7847 -13.24342,13.41886c-0.17517,-0.00981 -2.03786,-0.04479 -3.37054,-0.30923c-0.62132,0.96093 -1.4482,1.95253 -2.54832,3.05265c-2.0858,2.0858 -7.82098,1.25658 -10.58114,1.25658c0,0 -5,0 -5,-5c0,-5 5,-5 5,-5c1.54638,0 3.31646,0.2126 4.92891,0.11817c0.14725,-0.24905 0.29487,-0.50809 0.32767,-0.6993c0.08058,-0.4697 0.02144,-0.94341 -0.06026,-1.41886h-0.19633l0,-3c0,-2.76142 2.23858,-5 5,-5c1.84891,0 3.46343,1.00355 4.32857,2.49565c0.06892,-0.01072 0.13791,-0.02112 0.20696,-0.03119c0.46648,-0.06799 0.8218,0.56358 1,1c0.28715,0.70324 0.5291,1.42407 0.74228,2.15437c0.07381,-0.05411 0.13839,-0.1061 0.18665,-0.15437c0.33333,-0.33333 0.66667,-0.66667 1,-1c1.54564,-1.54564 2.13128,-3.06308 2.79212,-5.0456l0.96992,-4.57911c0,0 4.16025,-2.7735 6.93375,1.38675z" fill="#3b2d2d" stroke="none" stroke-width="0.5"/><path d="M277.88094,260.08465c-0.55134,2.48105 -2.08359,3.42069 -3.45706,3.7449l2.73637,-0.05605c-1.49375,2.24062 -3.8102,3.91161 -6.16025,5.2265c-0.87269,0.48828 -2,0 -3,0c-3.46974,0 -7.14924,0.3102 -10.58114,-0.25658c-1.26783,-0.20939 -2.34417,-0.9055 -3.28249,-1.80009c-0.04533,0.01916 -0.09079,0.03806 -0.13637,0.05667c-5.55153,2.26683 -11.24624,-3.70501 -13,-8c-0.41459,-1.01535 -0.23824,-2.83903 -0.10267,-4.36756l-0.64074,-0.21358l0.96354,-2.89062c0.03345,-0.10875 0.0705,-0.21592 0.11103,-0.32138c0.48733,-1.43432 1.69182,-3.20687 4.66885,-3.20687c2.97703,0 4.18152,1.77255 4.66885,3.20687c0.21391,0.55662 0.33115,1.16119 0.33115,1.79313c0,1 0,2 0,3c0,0.27052 0,0.54103 0,0.81155c0.15142,0.23865 0.32179,0.50764 0.49158,0.6258l0.02952,-0.02952c-0.16655,-0.17463 -0.64242,-0.611 -0.43996,-0.65125c0.30056,-0.05976 0.6033,0.0909 0.90585,0.18536l0.47748,-0.47748l0,0c0.90482,-0.90482 2.15482,-1.46447 3.53553,-1.46447c2.50977,0 4.58765,1.84916 4.94552,4.25937c0.92498,-0.03636 3.20446,-0.25937 4.05448,-0.25937c1.03008,0 2.06015,0 3.09023,0c0.26819,-0.2639 0.59968,-0.54875 0.74952,-0.7735l5.2449,-4.10743c0,0 4.88094,1.08465 3.79628,5.96559z" fill="#3b2d2d" stroke="none" stroke-width="0.5"/></g></g></g></svg>