<svg version="1.1" xmlns="http://www.w3.org/2000/svg" xmlns:xlink="http://www.w3.org/1999/xlink" width="34.85214" height="33.83287" viewBox="0,0,34.85214,33.83287"><defs><linearGradient x1="240" y1="167.81249" x2="240" y2="192.1875" gradientUnits="userSpaceOnUse" id="color-1"><stop offset="0" stop-color="#153769"/><stop offset="1" stop-color="#020408"/></linearGradient><linearGradient x1="240" y1="175.71623" x2="240" y2="184.28376" gradientUnits="userSpaceOnUse" id="color-2"><stop offset="0" stop-color="#13325f"/><stop offset="1" stop-color="#071016"/></linearGradient><radialGradient cx="240.35548" cy="179.88498" r="16.29599" gradientUnits="userSpaceOnUse" id="color-3"><stop offset="0" stop-color="#d6ffff" stop-opacity="0"/><stop offset="1" stop-color="#d6ffff"/></radialGradient></defs><g transform="translate(-222.59009,-163.08357)"><g data-paper-data="{&quot;isPaintingLayer&quot;:true}" fill-rule="nonzero" stroke-linejoin="miter" stroke-miterlimit="10" stroke-dasharray="" stroke-dashoffset="0" style="mix-blend-mode: normal"><path d="M229.4189,190.93808c0,0 -1.60641,-1.13583 -1.60641,-4.27445c0,-4.67983 0,-11.03455 0,-13.65447c0,-2.27842 1.33867,-3.59024 1.33867,-3.59024c0,0 0.9232,-1.60641 3.93236,-1.60641c4.61491,0 10.98746,0 13.65447,0c2.36432,0 3.84311,1.51717 3.84311,1.51717c0,0 1.60641,1.57792 1.60641,3.94723c0,2.63549 0,8.88036 0,13.47598c0,3.09018 -1.42793,3.91748 -1.42793,3.91748c0,0 -1.6573,1.51717 -4.0216,1.51717c-2.63279,0 -8.87664,0 -13.47598,0c-3.09776,0 -3.84311,-1.24943 -3.84311,-1.24943z" fill="url(#color-1)" stroke="none" stroke-width="0" stroke-linecap="butt"/><path d="M231.78946,179.99999c0,-4.53455 3.67597,-8.21054 8.21054,-8.21054c4.53455,0 8.21054,3.67597 8.21054,8.21054c0,4.53455 -3.67597,8.21054 -8.21054,8.21054c-4.53455,0 -8.21054,-3.67597 -8.21054,-8.21054z" fill="#ffffff" stroke="none" stroke-width="0" stroke-linecap="butt"/><path d="M235.71624,179.99999c0,-2.36586 1.9179,-4.28376 4.28376,-4.28376c2.36586,0 4.28376,1.9179 4.28376,4.28376c0,2.36586 -1.9179,4.28376 -4.28376,4.28376c-2.36586,0 -4.28376,-1.9179 -4.28376,-4.28376z" fill="url(#color-2)" stroke="none" stroke-width="0" stroke-linecap="butt"/><path d="M240.19717,178.89645c0,-0.93491 0.7579,-1.6928 1.69279,-1.6928c0.93491,0 1.6928,0.75791 1.6928,1.6928c0,0.93491 -0.75791,1.6928 -1.6928,1.6928c-0.93491,0 -1.69279,-0.75791 -1.69279,-1.6928z" fill="#ffffff" stroke="none" stroke-width="0" stroke-linecap="butt"/><path d="M224.31013,178.69255c0.6314,-8.4961 8.327,-14.84969 17.18861,-14.19112c8.86162,0.65857 15.53352,8.07988 14.90212,16.57599c-0.6314,8.4961 -8.327,14.84968 -17.18861,14.19111c-8.86161,-0.65857 -15.53352,-8.07988 -14.90212,-16.57599z" data-paper-data="{&quot;index&quot;:null}" fill="url(#color-3)" stroke="#1d726a" stroke-width="2" stroke-linecap="butt"/><path d="M223.59009,179.20065c0.66241,-8.91341 8.55258,-16.00206 17.55179,-15.02727c9.11959,0.98783 12.44742,5.76026 12.06463,6.4404c-0.22318,0.39655 -8.81168,-2.5072 -15.10846,-0.99312c-3.22069,0.77442 -6.26791,4.49879 -7.50909,8.5529c-0.57079,1.86441 -1.96515,8.0647 2.12649,9.93676c9.87076,4.51619 20.85807,0.4321 20.73977,1.16618c-0.43481,2.69812 -8.13993,7.42105 -14.74809,6.52961c-12.80705,-1.72769 -15.48753,-11.62004 -15.11704,-16.60546z" data-paper-data="{&quot;index&quot;:null}" fill="#e6e6e6" stroke="#6b6b6b" stroke-width="2" stroke-linecap="butt"/><path d="M228.8343,186.29178c0.01094,-0.81592 5.25932,3.1128 11.82609,3.60082c6.56678,0.48801 13.20467,-1.30997 13.04296,-0.71899c-0.12599,0.46043 -5.54266,3.48151 -12.10944,2.99349c-6.56678,-0.48802 -12.78999,-3.61221 -12.75962,-5.87531z" data-paper-data="{&quot;index&quot;:null}" fill="#bcbcbc" stroke="#6b6b6b" stroke-width="2" stroke-linecap="butt"/><path d="M227.58613,183.61489l-2.89128,0.88769" data-paper-data="{&quot;index&quot;:null}" fill="none" stroke="#6b6b6b" stroke-width="2" stroke-linecap="round"/><path d="M229.0753,168.21299c0,0 1.91101,-0.67087 3.65369,0.41025c1.63488,1.01424 1.83579,2.68519 1.83579,2.68519" data-paper-data="{&quot;index&quot;:null}" fill="none" stroke="#6b6b6b" stroke-width="2" stroke-linecap="round"/><g data-paper-data="{&quot;index&quot;:null}" stroke="#385759" stroke-width="2" stroke-linecap="butt"><path d="M225.97701,183.39352c0.127,-2.95683 1.54176,-5.29788 3.15994,-5.22888c1.61818,0.069 2.82702,2.52191 2.70001,5.47874c-0.127,2.95684 -1.54176,5.29788 -3.15994,5.22888c-1.61818,-0.069 -2.82702,-2.52192 -2.70001,-5.47875z" fill="#99adc0"/><path d="M225.91574,183.346c0.08319,-2.02449 1.10203,-3.6234 2.27564,-3.57127c1.17362,0.05213 2.05759,1.73555 1.9744,3.76004c-0.08319,2.0245 -1.10203,3.6234 -2.27564,3.57127c-1.17362,-0.05213 -2.05758,-1.73555 -1.9744,-3.76004z" fill="#c2d1e0"/></g></g></g></svg>